<?xml version="1.0" encoding="utf-8"?><svg width="394" height="394" viewBox="0 0 394 394" xmlns="http://www.w3.org/2000/svg" xmlns:xlink="http://www.w3.org/1999/xlink"><svg viewBox="-4 -4 197 197" width="197" height="197" id="service1" xmlns="http://www.w3.org/2000/svg"><defs><style>.acls-1,.acls-2{fill:#201600;fill-rule:evenodd}.acls-2{fill:#fff}</style></defs><g id="aСлой_2" data-name="Слой 2"><g id="aСлой_1-2" data-name="Слой 1"><path class="acls-1" d="M55.45 102.15a1.67 1.67 0 1 1 0 3.33H44.66a1.68 1.68 0 0 1-1.66-1.66V83.19a1.68 1.68 0 0 1 1.68-1.67H63a1.68 1.68 0 0 1 1.68 1.67v18.48a1.68 1.68 0 0 1-3.35 0V84.85h-15v17.3z"/><path class="acls-1" d="M53.84 104.25a1.67 1.67 0 0 1 3.23-.86l6.15 22.83h5.68V106.4a1.67 1.67 0 0 1 3.34 0v21.49a1.67 1.67 0 0 1-1.67 1.66h-8.64a1.67 1.67 0 0 1-1.61-1.24zM55.45 94.89a1.67 1.67 0 1 1 0 3.33h-4.31a1.67 1.67 0 1 1 0-3.33zM117.59 119a1.67 1.67 0 0 1-3.34 0V59.36a1.67 1.67 0 0 1 3.34 0z"/><path class="acls-1" d="M71.3 82.1a1.66 1.66 0 1 1-1.45-3L126 52.17a1.66 1.66 0 1 1 1.46 3zM69.85 107.89a1.66 1.66 0 1 1 1.45-3l56.15 26.94a1.67 1.67 0 0 1-1.46 3zM69.85 99.29a1.65 1.65 0 0 1-.78-2.21 1.67 1.67 0 0 1 2.23-.77l56.15 26.94a1.66 1.66 0 1 1-1.46 3z"/><path class="acls-1" d="M125.05 53.67a1.67 1.67 0 1 1 3.34 0v71.07a1.67 1.67 0 0 1-3.34 0zM140.1 100.52a1.68 1.68 0 0 1-2.17.92 1.66 1.66 0 0 1-.93-2.16 15.35 15.35 0 0 0 .84-2.83 16 16 0 0 0 .28-3 15.32 15.32 0 0 0-1.12-5.73 1.66 1.66 0 0 1 .93-2.16 1.68 1.68 0 0 1 2.17.93 18.84 18.84 0 0 1 1 10.59 19.35 19.35 0 0 1-1 3.44zM146.36 107.06a1.67 1.67 0 0 1-2.9-1.65c.29-.49.54-1 .77-1.44s.47-1 .67-1.49c.29-.72.55-1.45.76-2.17v-.07c.2-.7.38-1.43.52-2.18s.27-1.52.34-2.27.1-1.48.1-2.29a24 24 0 0 0-.44-4.56 22.2 22.2 0 0 0-.54-2.24c-.21-.72-.47-1.44-.76-2.17v-.06c-.18-.46-.4-.94-.64-1.43v-.08c-.21-.45-.46-.91-.73-1.37a1.67 1.67 0 0 1 2.9-1.65c.29.5.56 1 .83 1.56l.05.09c.24.5.49 1 .72 1.62v.07c.32.8.62 1.63.87 2.48.25.86.46 1.71.62 2.55a26.74 26.74 0 0 1 .5 5.18q0 1.25-.12 2.61c-.09.88-.22 1.75-.38 2.58s-.36 1.64-.6 2.48v.07c-.25.84-.54 1.67-.87 2.48-.23.57-.49 1.15-.75 1.69s-.62 1.14-.92 1.66z"/><path class="acls-2" d="M0 94.5A94.5 94.5 0 1 0 94.5 0 94.6 94.6 0 0 0 0 94.5zm10 0A84.5 84.5 0 1 1 94.5 179 84.59 84.59 0 0 1 10 94.5z"/><path class="acls-2" d="M30 34.75l4.24-4.24a2 2 0 0 1 2.83 0L158 151.42a2 2 0 0 1 0 2.83l-4.24 4.24a2 2 0 0 1-2.83 0L30 37.58a2 2 0 0 1 0-2.83z"/></g></g></svg><svg viewBox="-4 -4 197 197" width="197" height="197" id="service2" x="197" xmlns="http://www.w3.org/2000/svg"><defs><style>.bcls-1{fill:#fff;fill-rule:evenodd}.bcls-2{fill:#201600}</style></defs><g id="bСлой_2" data-name="Слой 2"><g id="bСлой_1-2" data-name="Слой 1"><path class="bcls-1" d="M0 94.5A94.5 94.5 0 1 0 94.5 0 94.6 94.6 0 0 0 0 94.5zm10 0A84.5 84.5 0 1 1 94.5 179 84.6 84.6 0 0 1 10 94.5z"/><path class="bcls-2" d="M74.14 67.34H56.75a1.73 1.73 0 1 1 0-3.46h17.39a1.73 1.73 0 1 1 0 3.46zM74.14 74.28H56.75a1.74 1.74 0 1 1 0-3.47h17.39a1.74 1.74 0 1 1 0 3.47z"/><path class="bcls-2" d="M56.75 77.74A1.73 1.73 0 0 1 55 76V62.14a1.74 1.74 0 0 1 3.48 0V76a1.73 1.73 0 0 1-1.73 1.74zM133.26 67.34h-17.39a1.73 1.73 0 1 1 0-3.46h17.39a1.73 1.73 0 1 1 0 3.46zM133.26 74.28h-17.39a1.74 1.74 0 1 1 0-3.47h17.39a1.74 1.74 0 1 1 0 3.47z"/><path class="bcls-2" d="M133.26 77.74a1.73 1.73 0 0 1-1.74-1.74V62.14a1.74 1.74 0 0 1 3.48 0V76a1.73 1.73 0 0 1-1.74 1.74zM102 102H88.05a5.22 5.22 0 0 1-5.22-5.2c0-7.7-.39-8.67-3.48-8.67a7 7 0 0 1-6.95-6.93V57a7 7 0 0 1 6.95-7h31.3a7 7 0 0 1 7 6.94v24.27a7 7 0 0 1-7 6.93c-3.12 0-3.47.89-3.47 8.67A5.22 5.22 0 0 1 102 102zM79.35 53.48A3.47 3.47 0 0 0 75.88 57v24.21a3.48 3.48 0 0 0 3.47 3.47c7 0 7 5.62 7 12.13a1.74 1.74 0 0 0 1.74 1.73H102a1.74 1.74 0 0 0 1.74-1.73c0-6.78 0-12.13 7-12.13a3.48 3.48 0 0 0 3.48-3.47V57a3.47 3.47 0 0 0-3.48-3.47z"/><path class="bcls-2" d="M95 77.74A1.72 1.72 0 0 1 93.27 76V62.14a1.74 1.74 0 0 1 3.47 0V76A1.73 1.73 0 0 1 95 77.74zM102 77.74a1.73 1.73 0 0 1-1.78-1.74V62.14a1.74 1.74 0 0 1 3.48 0V76a1.73 1.73 0 0 1-1.7 1.74zM88.05 77.74A1.73 1.73 0 0 1 86.31 76V62.14a1.74 1.74 0 0 1 3.48 0V76a1.73 1.73 0 0 1-1.74 1.74zM102 126.27H88.05a1.74 1.74 0 0 1-1.74-1.73v-24.27a1.74 1.74 0 0 1 3.48 0v22.53h10.43v-22.53a1.74 1.74 0 0 1 3.48 0v24.27a1.74 1.74 0 0 1-1.7 1.73z"/><path class="bcls-2" d="M98.48 154h-7a1.74 1.74 0 0 1-1.74-1.73v-27.73a1.74 1.74 0 1 1 3.48 0v26h3.47v-26a1.74 1.74 0 1 1 3.48 0v27.73a1.74 1.74 0 0 1-1.69 1.73zM108.92 150.53a1.76 1.76 0 0 1-1.23-.5 1.73 1.73 0 0 1 0-2.45l9.2-9.18-2.25-2.24a1.73 1.73 0 0 1 0-2.45l10.44-10.4a1.73 1.73 0 1 1 2.45 2.45l-9.2 9.18 2.25 2.24a1.73 1.73 0 0 1 0 2.45L110.15 150a1.78 1.78 0 0 1-1.23.53zM81.09 150.53a1.78 1.78 0 0 1-1.23-.5l-10.43-10.4a1.73 1.73 0 0 1 0-2.45l2.25-2.24-9.21-9.18a1.74 1.74 0 1 1 2.46-2.45l10.44 10.4a1.73 1.73 0 0 1 0 2.45l-2.25 2.24 9.2 9.18a1.73 1.73 0 0 1 0 2.45 1.76 1.76 0 0 1-1.23.5z"/><path class="bcls-1" d="M30 34.75l4.24-4.24a2 2 0 0 1 2.83 0L158 151.42a2 2 0 0 1 0 2.83l-4.24 4.24a2 2 0 0 1-2.83 0L30 37.58a2 2 0 0 1 0-2.83z"/></g></g></svg><svg viewBox="-4 -4 197 197" width="197" height="197" id="service3" y="197" xmlns="http://www.w3.org/2000/svg"><defs><style>.ccls-1{fill:#fff;fill-rule:evenodd}.ccls-2{fill:#201600}</style></defs><g id="cСлой_2" data-name="Слой 2"><g id="cСлой_1-2" data-name="Слой 1"><path class="ccls-1" d="M0 94.5A94.5 94.5 0 1 0 94.5 0 94.6 94.6 0 0 0 0 94.5zm10 0A84.5 84.5 0 1 1 94.5 179 84.6 84.6 0 0 1 10 94.5z"/><path class="ccls-2" d="M136.2 134H55.8A12.75 12.75 0 0 1 43 121.3a16.12 16.12 0 0 1 1.32-5.63l.14-.25 41-62.95a1.74 1.74 0 0 1 .11-.18 12.85 12.85 0 0 1 20.8 0l.12.18 41 63 .14.25a16 16 0 0 1 1.37 5.58 12.76 12.76 0 0 1-12.8 12.7zm-88.57-16.74a12.07 12.07 0 0 0-1 4 9.11 9.11 0 0 0 9.14 9.06h80.4a9.11 9.11 0 0 0 9.14-9.06 12.28 12.28 0 0 0-1-4l-41-62.92a9.18 9.18 0 0 0-14.74 0z"/><path class="ccls-2" d="M85 123.11a1.75 1.75 0 0 1-.91-.24 1.8 1.8 0 0 1-.83-2.14l6.51-19.37H77.73a1.82 1.82 0 0 1-1.64-1 1.8 1.8 0 0 1 .18-1.9l21.92-29a1.86 1.86 0 0 1 2.19-.57 1.8 1.8 0 0 1 1.08 2l-3.3 19.64h12.46a1.82 1.82 0 0 1 1.38 3l-25.59 29a1.81 1.81 0 0 1-1.41.58zm-3.62-25.37h11a1.84 1.84 0 0 1 1.48.75 1.81 1.81 0 0 1 .25 1.64l-4.44 13.2 17-19.22H96a1.8 1.8 0 0 1-1.39-.64A1.78 1.78 0 0 1 94.2 92l2.42-14.41z"/><path class="ccls-1" d="M30 34.75l4.24-4.24a2 2 0 0 1 2.83 0L158 151.42a2 2 0 0 1 0 2.83l-4.24 4.24a2 2 0 0 1-2.83 0L30 37.58a2 2 0 0 1 0-2.83z"/></g></g></svg></svg>