<?xml version="1.0" encoding="utf-8"?><svg width="118" height="94" viewBox="0 0 118 94" xmlns="http://www.w3.org/2000/svg" xmlns:xlink="http://www.w3.org/1999/xlink"><svg width="53.75" height="40.38" viewBox="-4 -4 53.75 40.38" id="email" y="53.28" xmlns="http://www.w3.org/2000/svg"><defs><style>.acls-1{fill:#fff;fill-rule:evenodd}</style></defs><path class="acls-1" d="M44.11 1.63v29.114H1.64V1.63h42.47m0-1.617H1.64A1.624 1.624 0 0 0 .01 1.63v29.114a1.625 1.625 0 0 0 1.63 1.618h42.47a1.625 1.625 0 0 0 1.63-1.618V1.63A1.624 1.624 0 0 0 44.11.013zm-2.66 26.964l-11.1-12.568 11.01-8.917a.8.8 0 0 0 .11-1.139.823.823 0 0 0-1.15-.114L26.15 15.724a5.436 5.436 0 0 1-6.55 0L5.43 4.244a.824.824 0 0 0-1.15.114.8.8 0 0 0 .11 1.139l11.01 8.917L4.3 26.982a.8.8 0 0 0 .07 1.141.831.831 0 0 0 1.16-.077l11.13-12.607 1.91 1.541a7.139 7.139 0 0 0 8.61 0l1.91-1.541 11.13 12.607a.831.831 0 0 0 1.16.077.8.8 0 0 0 .07-1.146z"/></svg><svg width="57.59" height="50.31" viewBox="-4 -4 57.59 50.31" id="map" x="60.24" xmlns="http://www.w3.org/2000/svg"><defs><style>.bcls-1{fill:#fff;fill-rule:evenodd}</style></defs><path class="bcls-1" d="M48.767 13.219L38.51 7.026a1.668 1.668 0 0 0-.889-.255h-1.709a1.673 1.673 0 0 0-.889.255l-.41.252a10.255 10.255 0 0 0-19.625 0l-.41-.252a1.673 1.673 0 0 0-.889-.255h-1.71a1.673 1.673 0 0 0-.889.255L.833 13.219a1.689 1.689 0 0 0-.82 1.454v25.938a1.692 1.692 0 0 0 .871 1.473 1.641 1.641 0 0 0 .838.219 1.679 1.679 0 0 0 .889-.254l10.223-6.175 10.223 6.175a1.679 1.679 0 0 0 .889.254h1.709a1.681 1.681 0 0 0 .889-.254l10.223-6.175 10.223 6.175a1.675 1.675 0 0 0 .888.254 1.636 1.636 0 0 0 .838-.219 1.691 1.691 0 0 0 .872-1.473V14.673a1.688 1.688 0 0 0-.821-1.454zM11.979 34.4L1.722 40.609V14.673l10.257-6.21V34.4zM24.8 1.7a8.536 8.536 0 0 1 8.292 6.5 7.19 7.19 0 0 1 .239 1.828.82.82 0 0 1 .017.2c0 3.772-5.522 11.286-7.693 14.078-.53.676-.855 1.082-.855 1.082s-.324-.406-.854-1.082C21.775 21.514 16.253 14 16.253 10.228a.82.82 0 0 1 .017-.2 7.19 7.19 0 0 1 .239-1.828A8.536 8.536 0 0 1 24.8 1.7zm-.854 38.916L13.689 34.4V8.463l.923.559a9.14 9.14 0 0 0-.069 1.2c0 5.16 8.018 15.109 8.924 16.226a1.789 1.789 0 0 0 .479.39V40.61zm11.966-6.209l-10.257 6.209V26.839a1.785 1.785 0 0 0 .478-.39c.907-1.117 8.924-11.066 8.924-16.226a9.317 9.317 0 0 0-.068-1.2l.923-.559V34.4zm11.966 6.209L37.621 34.4V8.463l10.257 6.21v25.938zM24.8 6.771a2.538 2.538 0 1 1-2.564 2.538A2.552 2.552 0 0 1 24.8 6.771m0-1.692a4.23 4.23 0 1 0 4.274 4.23 4.257 4.257 0 0 0-4.274-4.23z"/></svg><svg width="60.24" height="53.28" viewBox="-4 -4 60.24 53.28" id="phone" xmlns="http://www.w3.org/2000/svg"><defs><style>.ccls-1{fill:#fff;fill-rule:evenodd}</style></defs><path class="ccls-1" d="M8.23 1.616a2.154 2.154 0 0 1 1.68.846l6.18 7.934c.68.876.4 1.693-.63 1.826l-3.75 1.355s1.01 4.235 5.95 10.58 8.87 8.458 8.87 8.458l2.39-3.11a1.056 1.056 0 0 1 .93-.709 1.413 1.413 0 0 1 1.06.637l6.18 7.933a1.838 1.838 0 0 1-.23 2.646l-4.38 3.182a2.942 2.942 0 0 1-1.76.474c-4.54 0-13.97-6-20.36-14.208C2.95 19.941-.38 7.453 2.83 5.119l4.38-3.182a1.729 1.729 0 0 1 1.02-.321m0-1.617a3.35 3.35 0 0 0-1.98.634L1.87 3.814A4.83 4.83 0 0 0 .08 7.233c-.79 5.532 3.16 15.729 8.99 23.215 6.26 8.042 16.17 14.837 21.65 14.837a4.548 4.548 0 0 0 2.73-.787l4.38-3.182a3.246 3.246 0 0 0 1.31-2.188 3.642 3.642 0 0 0-.76-2.749l-6.17-7.934a3.019 3.019 0 0 0-2.36-1.266 2.615 2.615 0 0 0-2.32 1.47l-1.37 1.778a37.463 37.463 0 0 1-7.21-7.258 36.509 36.509 0 0 1-5.18-8.615l2.11-.761a2.642 2.642 0 0 0 2.03-1.539 2.829 2.829 0 0 0-.53-2.846L11.2 1.475A3.8 3.8 0 0 0 8.23-.001zm27.82 25.742l-.14 1.594a6.149 6.149 0 0 1 4.16 2.347 6.6 6.6 0 0 1 1.37 4.712l1.53.171a8.291 8.291 0 0 0-1.72-5.89 7.662 7.662 0 0 0-5.2-2.934zm7.58.916a11.648 11.648 0 0 1 2.41 8.246l1.53.17a13.335 13.335 0 0 0-2.75-9.424 12.3 12.3 0 0 0-8.33-4.693l-.14 1.59a10.763 10.763 0 0 1 7.28 4.111zm-6.69-10.485l-.15 1.589a15.348 15.348 0 0 1 10.4 5.871 16.6 16.6 0 0 1 3.44 11.782l1.53.167a18.229 18.229 0 0 0-3.78-12.957 16.9 16.9 0 0 0-11.44-6.452z"/></svg></svg>