<?xml version="1.0" encoding="UTF-8"?><!DOCTYPE svg PUBLIC "-//W3C//DTD SVG 1.1//EN" "http://www.w3.org/Graphics/SVG/1.1/DTD/svg11.dtd"><svg width="302" height="270" viewBox="0 0 302 270" xmlns="http://www.w3.org/2000/svg" xmlns:xlink="http://www.w3.org/1999/xlink"><svg width="67" height="66" viewBox="-4 -4 67 66" id="additional" x="57" y="198" xmlns="http://www.w3.org/2000/svg"><path d="M58.246 50.734h-7.629c-1.48-4.894-10.98-36.09-15.558-46.55C33.91 1.562 31.867 0 29.586 0c-2.281 0-4.328 1.563-5.473 4.184-4.578 10.46-14.078 41.656-15.558 46.55H.925a.913.913 0 0 0-.925.903v5.418c0 .5.414.906.926.906h57.32a.916.916 0 0 0 .926-.906v-5.418c0-.5-.414-.903-.926-.903zm-44.703-9.937h32.086a770.13 770.13 0 0 1 1.121 3.613H12.422a770.13 770.13 0 0 1 1.121-3.613zM57.32 56.152H1.848V52.54h7.398c.016 0 .031-.008.05-.008.067-.004.13-.023.192-.039.055-.015.106-.023.157-.047.054-.027.097-.062.148-.101.047-.032.094-.063.133-.106.035-.043.062-.09.094-.136.03-.055.066-.106.09-.164.003-.02.019-.032.023-.047.027-.086.687-2.282 1.738-5.703.05.007.098.03.149.03h35.132c.051 0 .098-.023.149-.03 1.05 3.421 1.71 5.617 1.738 5.703.004.02.02.035.023.05.016.043.036.075.06.114a.844.844 0 0 0 .378.37c.035.016.063.036.098.052.105.039.215.062.328.062h7.394zM25.812 4.895c.848-1.934 2.258-3.09 3.774-3.09s2.926 1.156 3.773 3.09c.786 1.793 1.715 4.207 2.73 7H23.083c1.012-2.793 1.945-5.207 2.73-7zm-3.378 8.804h14.304c.41 1.16.832 2.367 1.262 3.614H21.172c.43-1.247.851-2.454 1.262-3.614zm-1.88 5.422h18.063c.696 2.055 1.406 4.18 2.11 6.32H18.445c.703-2.14 1.41-4.265 2.11-6.32zm-2.699 8.129h23.461c.395 1.207.786 2.418 1.168 3.613H16.687c.383-1.195.774-2.406 1.168-3.613zm-1.746 5.418h26.953c.704 2.195 1.376 4.328 2 6.324H14.105c.625-1.996 1.301-4.129 2.004-6.324zm0 0" fill="#fa922a"/></svg><svg width="61" height="88" viewBox="-4 -4 61 68" id="deed" x="198" y="96.79" xmlns="http://www.w3.org/2000/svg"><path d="M40.742 27.098a.942.942 0 0 0-.949.933V55.13c0 1.543-1.273 2.8-2.84 2.8H4.738c-1.566 0-2.843-1.257-2.843-2.8V16.82h10.421c1.567 0 2.844-1.258 2.844-2.804v-6.54a.943.943 0 0 0-.95-.937.945.945 0 0 0-.948.938l.004 6.539a.942.942 0 0 1-.95.933H3.11L12.73 4.672h24.223a.939.939 0 0 0 .945-.934.939.939 0 0 0-.945-.933H12.316a.948.948 0 0 0-.695.297L.25 15.25c-.04.043-.063.102-.094.152-.027.043-.066.082-.086.133a.952.952 0 0 0-.07.348v39.246C0 57.703 2.125 59.8 4.738 59.8h32.215c2.61 0 4.734-2.098 4.734-4.672V28.03a.939.939 0 0 0-.945-.933zM50.75 11.289l1.563-1.539a2.459 2.459 0 0 0 .003-3.527L46.73.71c-.953-.95-2.628-.945-3.574 0l-2.218 2.187c-.004.004-.012.008-.02.012l-.012.02-11.16 11.008a.94.94 0 0 0-.203.292l-1.602 3.7-13.28 13.101a.892.892 0 0 0-.188.278c-.016.035-.024.066-.036.105-.011.04-.035.078-.042.125l-1.118 6.617a.943.943 0 0 0 1.09 1.074l6.707-1.101c.043-.008.082-.031.13-.043.03-.012.066-.02.1-.035a.898.898 0 0 0 .282-.184l13.281-13.105 3.746-1.582a.945.945 0 0 0 .297-.2l10.5-10.367.895.883L39.8 23.86a.927.927 0 0 0 0 1.325c.183.183.43.273.672.273a.94.94 0 0 0 .668-.273l11.175-11.028a.929.929 0 0 0 0-1.32zM44.5 2.027a.643.643 0 0 1 .887.004l5.593 5.516a.606.606 0 0 1-.004.875L49.41 9.969l-6.476-6.395zm-6.262 18.97l-6.484-6.4 9.836-9.702 6.48 6.394zm-22.277 12.64l2.984 2.945-3.582.59zm4.957 2.246l-4.246-4.192 12.07-11.906 4.246 4.188zm13.625-13.02l-4.68-4.617.871-2.008 5.844 5.766zm0 0" fill="#fa922a"/></svg><svg width="67" height="60" viewBox="-4 -4 67 47" id="evolution" x="124" y="198" xmlns="http://www.w3.org/2000/svg"><path d="M54.488 29.785h-.039C54.031 17.48 45.438 7.316 34.172 5.11v-.453c0-2.57-2.07-4.656-4.617-4.656-2.551 0-4.621 2.086-4.621 4.656v.453C13.668 7.316 5.074 17.48 4.656 29.785h-.039C2.07 29.785 0 31.875 0 34.441c0 2.567 2.07 4.653 4.617 4.653h49.871c2.547 0 4.617-2.086 4.617-4.653 0-2.566-2.07-4.656-4.617-4.656zM26.781 4.656c0-1.539 1.25-2.793 2.774-2.793 1.523 0 2.77 1.254 2.77 2.793v25.13H26.78zm27.707 32.578H4.618c-1.528 0-2.77-1.254-2.77-2.793 0-1.543 1.242-2.793 2.77-2.793h49.87c1.528 0 2.77 1.25 2.77 2.793 0 1.54-1.242 2.793-2.77 2.793zM19.395 8.988v11.489c0 .515.414.933.921.933a.93.93 0 0 0 .926-.933V8.379c0-.078-.027-.149-.047-.223A22.283 22.283 0 0 1 24.934 7v22.785H6.504c.332-9.129 5.492-16.98 12.89-20.797zM37.91 8.16c-.02.07-.047.14-.047.219v12.098a.93.93 0 0 0 .926.933.929.929 0 0 0 .922-.933V8.992C47.105 12.81 52.27 20.656 52.6 29.785h-18.43V7a21.94 21.94 0 0 1 3.74 1.16zm0 0" fill="#fa922a"/></svg><svg width="198" height="198" shape-rendering="geometricPrecision" text-rendering="geometricPrecision" image-rendering="optimizeQuality" fill-rule="evenodd" clip-rule="evenodd" viewBox="-4 -4 104.76 104.76" id="no-heavy-machinery" xmlns="http://www.w3.org/2000/svg"><path fill-rule="nonzero" d="M55.259 38.927l7.785-7.781a.867.867 0 0 1 .052-.053l2.797-2.795a2.803 2.803 0 0 0 .794-2.43l-.316-.927a2.838 2.838 0 0 0-.478-.634c-1.066-1.066-2.926-1.066-3.992 0l-9.438 9.43a366.3 366.3 0 0 0 2.796 5.19zm9.525 14.634c2.373 2.178 7.343 2.724 10.011.73 2.544-1.9 1.063-5.948-.645-7.876l-9.366 7.146zm6.644 20.716a.924.924 0 0 1-.23-.029c-.082-.02-8.242-2.175-8.242-12.2a.94.94 0 1 1 1.882 0c0 8.574 6.749 10.359 6.817 10.376a.94.94 0 0 1-.227 1.853zm-13.178 0H30.013a4.71 4.71 0 0 1-4.706-4.704 4.71 4.71 0 0 1 4.706-4.703H58.25a4.71 4.71 0 0 1 4.706 4.703 4.71 4.71 0 0 1-4.706 4.704zm-3.763-1.882a4.679 4.679 0 0 1-.943-2.822 4.678 4.678 0 0 1-.943 2.822h1.886zm-.943-2.822c0-1.058.351-2.035.944-2.822H52.6c.592.787.944 1.764.944 2.822zm4.706-2.822a2.826 2.826 0 0 0-2.824 2.822 2.826 2.826 0 0 0 2.824 2.822 2.826 2.826 0 0 0 2.823-2.822 2.826 2.826 0 0 0-2.823-2.822zm-13.175 5.644a4.678 4.678 0 0 1-.944-2.822 4.678 4.678 0 0 1-.943 2.822h1.887zm-.944-2.822c0-1.058.352-2.035.945-2.822h-1.888c.592.787.943 1.764.943 2.822zm4.706-2.822a2.826 2.826 0 0 0-2.823 2.822 2.826 2.826 0 0 0 2.823 2.822 2.826 2.826 0 0 0 2.824-2.822 2.826 2.826 0 0 0-2.824-2.822zm-13.174 5.644a4.679 4.679 0 0 1-.944-2.822 4.678 4.678 0 0 1-.943 2.822h1.887zm-.944-2.822c0-1.058.352-2.035.945-2.822h-1.889c.593.787.944 1.764.944 2.822zm4.706-2.822a2.826 2.826 0 0 0-2.823 2.822 2.826 2.826 0 0 0 2.823 2.822 2.826 2.826 0 0 0 2.824-2.822 2.826 2.826 0 0 0-2.824-2.822zm-9.412 5.644a2.826 2.826 0 0 0 2.824-2.822 2.826 2.826 0 0 0-2.824-2.822 2.826 2.826 0 0 0-2.824 2.822 2.826 2.826 0 0 0 2.824 2.822zM35.66 49.82h-3.764a.94.94 0 1 1 0-1.881h3.764a.94.94 0 1 1 0 1.881zm0 7.525h-3.764a.94.94 0 1 1 0-1.88h3.764a.94.94 0 1 1 0 1.88zm0-3.762h-3.764a.94.94 0 1 1 0-1.881h3.764a.94.94 0 1 1 0 1.88zm22.59 9.407H30.954a3.768 3.768 0 0 1-3.765-3.763v-13.17a3.767 3.767 0 0 1 3.765-3.762h3.765V31.006a3.768 3.768 0 0 1 3.765-3.763h7.53c2.868 0 4.004 1.304 4.905 3.409.136.316.36.78.638 1.331l9.013-9.006a4.674 4.674 0 0 1 3.327-1.378c1.257 0 2.44.49 3.327 1.378a4.666 4.666 0 0 1 1.293 2.424l6.565 19.238.466.538c1.705 1.925 2.662 4.617 2.433 6.851-.161 1.569-.877 2.868-2.069 3.759-1.344 1.005-3.304 1.558-5.518 1.558-2.671 0-5.148-.826-6.626-2.182l-1.587.286a.94.94 0 1 1-.74-1.672l8.9-6.842-6.86-13.566-8.055 8.051v12.248l3.298 1.923c.29.169.467.479.467.813v5.644a.94.94 0 0 1-.941.94zM36.602 42.693l16.942 9.878V39.713c-.43-.782-1.912-3.491-3.063-5.704l-.015-.028c-.559-1.077-1.038-2.033-1.276-2.588-.718-1.674-1.306-2.268-3.176-2.268h-7.53a1.884 1.884 0 0 0-1.882 1.88v11.689zm-5.648 1.482a1.884 1.884 0 0 0-1.882 1.882v13.169c0 1.037.845 1.881 1.882 1.881H57.31v-4.163L35.406 44.175h-4.452zM50.72 48.88a.95.95 0 0 1-.474-.128L38.95 42.166a.942.942 0 0 1-.467-.813v-9.407c0-.52.421-.94.941-.94h6.589a.94.94 0 0 1 .822.484l4.707 8.466c.078.14.118.297.118.456v7.526a.94.94 0 0 1-.941.94zm-10.353-8.066l9.412 5.487v-5.644l-4.32-7.769h-5.092v7.926zm32.775 3.968l-5.387-15.784a4.747 4.747 0 0 1-.53.63l-2.342 2.341 6.977 13.799 1.282-.986z"/><path fill="#fff" d="M48.377 0c26.714 0 48.378 21.664 48.378 48.377 0 26.714-21.664 48.378-48.378 48.378C21.664 96.755 0 75.091 0 48.377 0 21.664 21.663 0 48.377 0zM19.586 16.13L80.623 77.17c6.832-7.646 10.988-17.734 10.988-28.792 0-23.873-19.36-43.233-43.234-43.233-11.058 0-21.145 4.155-28.791 10.987zm57.583 64.492L16.13 19.586C9.299 27.23 5.143 37.32 5.143 48.377c0 23.874 19.36 43.234 43.234 43.234 11.058 0 21.146-4.155 28.792-10.988z"/></svg><svg width="103.16" height="96.79" shape-rendering="geometricPrecision" text-rendering="geometricPrecision" image-rendering="optimizeQuality" fill-rule="evenodd" clip-rule="evenodd" viewBox="-4 -4 103.16 96.79" id="outside" x="198" xmlns="http://www.w3.org/2000/svg"><rect width="100%" height="100%" fill="none"/><g class="ecurrentLayer"><path fill-rule="nonzero" d="M89.879 37.23h-8.107l9.77 48.742a1.696 1.696 0 0 1-1.662 2.025H79.703a1.694 1.694 0 0 1-1.663-1.36l-4.476-22.332H21.401l-4.476 22.332a1.694 1.694 0 0 1-1.663 1.36H5.087a1.696 1.696 0 0 1-1.662-2.025l9.769-48.742H5.087l-.049-.001C2.255 37.202 0 34.935 0 32.151V21.999c0-2.8 2.282-5.076 5.087-5.076h13.567c-4.675 0-8.479-3.797-8.479-8.462C10.175 3.796 13.98 0 18.655 0c4.674 0 8.478 3.796 8.478 8.461 0 4.665-3.804 8.462-8.479 8.462h57.658c-4.675 0-8.48-3.797-8.48-8.462 0-4.665 3.805-8.461 8.48-8.461 4.675 0 8.479 3.796 8.479 8.461 0 4.665-3.804 8.462-8.479 8.462h13.617c2.782.027 5.037 2.293 5.037 5.076v10.152c0 2.8-2.282 5.079-5.087 5.079zM18.654 3.384c-2.806 0-5.088 2.278-5.088 5.078 0 2.799 2.282 5.076 5.088 5.076 2.805 0 5.087-2.277 5.087-5.076 0-2.8-2.282-5.078-5.087-5.078zm57.658 0c-2.805 0-5.088 2.278-5.088 5.078 0 2.799 2.283 5.076 5.088 5.076S81.4 11.26 81.4 8.462c0-2.8-2.283-5.078-5.088-5.078zm-3.425 57.537l-.678-3.384H22.757l-.678 3.384h50.808zm-54.548 1.401c.006-.029.011-.057.018-.085l1.338-6.678c.006-.033.012-.066.02-.099l3.654-18.23H16.653L7.156 84.612h6.716l4.467-22.29zm58.268-.095a1.5 1.5 0 0 1 .02.102l4.467 22.283h6.716L78.313 37.23H71.597l3.653 18.224c.008.037.016.074.022.112l1.335 6.661zm-5.077-8.075L68.14 37.23H26.827l-3.391 16.922H71.53zm.688-20.307l13.567-13.538H73.622L60.056 33.845h12.162zm18.255-13.43l-13.46 13.43H89.88c.935 0 1.695-.76 1.695-1.694V21.999c0-.724-.458-1.344-1.101-1.584zM55.26 33.845l13.567-13.538H56.664L43.097 33.845H55.26zm-16.958 0l13.566-13.538H39.706L26.139 33.845h12.163zm-16.958 0L34.91 20.307H22.747L9.181 33.845h12.163zm-16.851-.107l13.459-13.43H5.087c-.935 0-1.696.758-1.696 1.691v10.152c0 .725.459 1.345 1.102 1.587z"/></g></svg><svg width="57" height="72" viewBox="-4 -4 57 56" id="price" y="198" xmlns="http://www.w3.org/2000/svg"><path d="M5.52 44.371a.912.912 0 0 1-.918-.906v-23.55c0-.5.41-.903.918-.903.507 0 .921.402.921.902v23.55c0 .5-.414.907-.921.907zm29.445-9.965c-1.524 0-2.762-1.218-2.762-2.715 0-1.5 1.238-2.718 2.762-2.718 1.52 0 2.758 1.218 2.758 2.718 0 1.497-1.239 2.715-2.758 2.715zm12.879-8.148h-2.762V7.234c0-.5-.41-.906-.918-.906H29.676L23.508.254a.962.962 0 0 0-1.305 0l-6.168 6.074H5.52C2.477 6.328 0 8.766 0 11.766v30.793c0 2.996 2.477 5.433 5.52 5.433h38.644a.909.909 0 0 0 .918-.902v-9.965h2.762a.915.915 0 0 0 .922-.906V27.16c0-.5-.414-.902-.922-.902zm-.922 9.055H34.96c-2.027 0-3.68-1.626-3.68-3.622 0-2 1.653-3.625 3.68-3.625h11.96zm-3.68-19.926h-4.367l-2.758-2.719h7.125zM5.52 8.14h8.675l-2.761 2.718H4.602a.913.913 0 0 0-.922.907c0 .5.414.902.922.902h4.992l-2.762 2.719H5.52c-2.028 0-3.676-1.621-3.68-3.614v-.007-.004C1.844 9.766 3.492 8.14 5.52 8.14zm25.55 7.246H14.64l5.68-5.59a4.675 4.675 0 0 0 5.07 0zM17.066 7.875l5.79-5.7 10.386 10.227c.004 0 .004 0 .004.004l3.027 2.98h-2.601l-7.563-7.445a.927.927 0 0 0-1.3 0 2.807 2.807 0 0 1-3.907 0 .927.927 0 0 0-1.3 0l-7.563 7.446H9.434l3.03-2.98v-.005zm26.176.266v2.718h-8.965l-2.761-2.718zm0 38.043H5.52c-2.028 0-3.68-1.625-3.68-3.625V15.805a5.55 5.55 0 0 0 3.68 1.394h37.722v9.059h-8.281c-3.043 0-5.52 2.437-5.52 5.433 0 2.997 2.477 5.434 5.52 5.434h8.281zm-8.277-15.399a.915.915 0 0 0-.922.906c0 .5.414.907.922.907a.912.912 0 0 0 .918-.907c0-.5-.41-.906-.918-.906zm0 0" fill="#fa922a"/></svg></svg>