<?xml version="1.0" encoding="utf-8"?><svg width="278" height="238" viewBox="0 0 278 238" xmlns="http://www.w3.org/2000/svg" xmlns:xlink="http://www.w3.org/1999/xlink"><svg width="118" height="51" viewBox="-4 -4 118 51" id="back-call" x="139" xmlns="http://www.w3.org/2000/svg"><defs><style>.aacls-1{fill:#fff;fill-rule:evenodd}</style></defs><path id="aaShape_315_copy_3" data-name="Shape 315 copy 3" class="aacls-1" d="M48.01 3242.99l14.1-21.49-14.1-21.49h10.878l14.1 21.49-14.1 21.49H48.01zm17 0l14.1-21.49-14.1-21.49h10.878l14.1 21.49-14.1 21.49H65.01zm17 0l14.1-21.49-14.1-21.49h10.878l14.1 21.49-14.1 21.49H82.01zm17 0l14.1-21.49-14.1-21.49h10.879l14.1 21.49-14.1 21.49H99.01zm17 0l14.1-21.49-14.1-21.49h10.878l14.1 21.49-14.1 21.49H116.01zm17 0l14.1-21.49-14.1-21.49h10.878l14.1 21.49-14.1 21.49H133.01z" transform="translate(-48 -3200)"/></svg><svg width="35" height="35" viewBox="-4 -4 35 35" id="calc" x="35.01" y="158" xmlns="http://www.w3.org/2000/svg"><defs><style>.abcls-1{fill:#fff;fill-rule:evenodd}</style></defs><path id="abForma_1" data-name="Forma 1" class="abcls-1" d="M1207 620.035h13.03V607H1207v13.035zm3.72-7.449h1.87v-1.862a.93.93 0 1 1 1.86 0v1.862h1.86a.932.932 0 0 1 0 1.863h-1.86v1.862a.93.93 0 1 1-1.86 0v-1.862h-1.87a.932.932 0 0 1 0-1.863zm10.25-5.586v13.035H1234V607h-13.03zm9.31 7.449h-5.59a.932.932 0 0 1 0-1.863h5.59a.932.932 0 0 1 0 1.863zM1220.97 634H1234v-13.034h-13.03V634zm3.72-8.845h5.59a.932.932 0 0 1 0 1.863h-5.59a.932.932 0 0 1 0-1.863zm0 2.793h5.59a.932.932 0 0 1 0 1.863h-5.59a.932.932 0 0 1 0-1.863zM1207 634h13.03v-13.034H1207V634zm3.53-8.186a.932.932 0 0 1 1.32-1.317l1.67 1.67 1.67-1.67a.929.929 0 0 1 1.31 1.317l-1.67 1.669 1.67 1.669a.929.929 0 1 1-1.31 1.317l-1.67-1.67-1.67 1.67a.934.934 0 0 1-1.32 0 .938.938 0 0 1 0-1.317l1.67-1.669z" transform="translate(-1207 -607)"/></svg><svg width="21" height="20.97" viewBox="-4 -4 21 20.97" id="calendar" x="14.81" y="215.98" xmlns="http://www.w3.org/2000/svg"><defs><style>.accls-1{fill-rule:evenodd}</style></defs><path id="acCalendar" class="accls-1" d="M342 927.969h13v8h-13v-8zm1 1.031h2v1h-2v-1zm0 2h2v1h-2v-1zm0 2h2v1h-2v-1zm3-4h2v1h-2v-1zm0 2h2v1h-2v-1zm0 2h2v1h-2v-1zm6-4h2v1h-2v-1zm0 2h2v1h-2v-1zm0 2h2v1h-2v-1zm-10-9h13v3h-13v-3zm2-1h.99v3H344v-3zm8 0h.99v3H352v-3zm-3 6h2v1h-2v-1zm0 2h2v1h-2v-1zm0 2h2v1h-2v-1z" transform="translate(-342 -923)"/></svg><svg width="26" height="21" viewBox="-4 -4 26 21" id="envelope" x="70.00999999999999" y="158" xmlns="http://www.w3.org/2000/svg"><defs><style>.adcls-1{fill:#fa942e;fill-rule:evenodd}</style></defs><path id="ad_5" data-name="5" class="adcls-1" d="M1388.61 7547.01h-15.31a1.386 1.386 0 0 1-1.31-1.27v-9.2l3.83 4.11-2.58 4.79 3.71-3.46 2.38 1.9a2.618 2.618 0 0 0 3.2.04l2.37-1.97 3.84 3.8-2.6-5.05 3.86-4.16v9.28a1.306 1.306 0 0 1-1.39 1.19zm-9.47-4.52l-7.09-7.24a1.188 1.188 0 0 1 1.21-1.25h15.47a1.241 1.241 0 0 1 1.23 1.29l-7.62 7.2s-1.1 1.39-3.2 0z" transform="translate(-1372 -7534)"/></svg><svg width="14.81" height="21.32" viewBox="-4 -4 14.81 21.32" id="facebook" y="215.98" xmlns="http://www.w3.org/2000/svg"><defs><style>.aecls-1{fill:#fff;fill-rule:evenodd}</style></defs><path id="aeShape_2_copy_2" data-name="Shape 2 copy 2" class="aecls-1" d="M1091.49 1674.15v-5.76h-1.75v-2.4h1.75v-2.05c0-1.61 1.03-3.09 3.4-3.09a14.726 14.726 0 0 1 1.67.09l-.06 2.24h-1.51a.851.851 0 0 0-.99 1.06v1.75h2.57l-.11 2.4H1094v5.76h-2.51z" transform="translate(-1089.75 -1660.84)"/></svg><svg width="18" height="29" viewBox="-4 -4 18 29" id="goto-arrow" x="107" y="94" xmlns="http://www.w3.org/2000/svg"><path fill-rule="evenodd" opacity=".902" fill="#FFF" d="M9.681 11.384a.88.88 0 0 1-.577.257l-6.635 8.16a.906.906 0 0 1-1.284.192.95.95 0 0 1-.182-1.312L7.669 10.5 1.003 2.319a.95.95 0 0 1 .182-1.312.906.906 0 0 1 1.284.192l6.634 8.16a.88.88 0 0 1 .578.257.93.93 0 0 1 .222.884.929.929 0 0 1-.222.884z"/></svg><svg width="25" height="29" viewBox="-4 -4 25 29" id="goto-arrows" x="107" y="36" xmlns="http://www.w3.org/2000/svg"><path fill-rule="evenodd" opacity=".902" fill="#FFF" d="M16.682 11.385a.893.893 0 0 1-.578.257l-6.635 8.159a.905.905 0 0 1-1.284.192.949.949 0 0 1-.182-1.311l6.666-8.182-6.666-8.181a.949.949 0 0 1 .182-1.311.905.905 0 0 1 1.284.192l6.635 8.159c.21.016.417.094.578.257.234.24.297.576.221.884a.933.933 0 0 1-.221.885zM9.681 9.616a.93.93 0 0 1 .222.884.931.931 0 0 1-.222.885.89.89 0 0 1-.578.257l-6.634 8.159a.905.905 0 0 1-1.284.192.949.949 0 0 1-.182-1.311L7.669 10.5 1.003 2.319a.949.949 0 0 1 .182-1.311.905.905 0 0 1 1.284.192l6.635 8.159c.21.016.417.094.577.257z"/></svg><svg width="25" height="29" viewBox="-4 -4 25 29" id="goto-arrows-black" x="107" y="65" xmlns="http://www.w3.org/2000/svg"><path fill-rule="evenodd" opacity=".902" d="M16.681 11.385a.889.889 0 0 1-.577.257l-6.635 8.159a.906.906 0 0 1-1.284.192.949.949 0 0 1-.182-1.311l6.666-8.182-6.666-8.181a.95.95 0 0 1 .182-1.312.906.906 0 0 1 1.284.193l6.635 8.159c.21.016.417.094.577.257a.93.93 0 0 1 .222.884.931.931 0 0 1-.222.885zm-7-1.769a.93.93 0 0 1 .222.884.931.931 0 0 1-.222.885.89.89 0 0 1-.578.257l-6.634 8.159a.906.906 0 0 1-1.284.192.949.949 0 0 1-.182-1.311L7.669 10.5 1.003 2.319a.95.95 0 0 1 .182-1.312.906.906 0 0 1 1.284.193l6.635 8.159c.21.016.417.094.577.257z"/></svg><svg width="22.25" height="19.88" viewBox="-4 -4 22.25 19.88" id="gplus" x="19" y="193.01" xmlns="http://www.w3.org/2000/svg"><defs><style>.aicls-1{fill:#fff;fill-rule:evenodd}</style></defs><path id="aiShape_1_copy_7" data-name="Shape 1 copy 7" class="aicls-1" d="M1102.09 1744.23h-2.36v-2.39h-.99v2.39h-2.36v1.01h2.36v2.39h.99v-2.39h2.36v-1.01zm-8.04 4.16a1.88 1.88 0 0 1-.94-.84 1.058 1.058 0 0 1 .58-1.06 2.489 2.489 0 0 0 1.02-1.92 2.207 2.207 0 0 0-1.17-2.13h1.15l.8-.6h-3.6a3.051 3.051 0 0 0-3.14 2.7 2.627 2.627 0 0 0 2.74 2.68c.12 0 .23 0 .34-.01a1.063 1.063 0 0 0 .31 1.39c-.22 0-.43.01-.66.01-2.12 0-3.65 1.4-3.65 2.83 0 1.4 1.69 2.28 3.81 2.28 2.41 0 3.8-1.39 3.8-2.8a2.766 2.766 0 0 0-1.39-2.53zm-2.1-2.07a1.9 1.9 0 0 1-1.52-1.77c-.12-.95.36-1.69 1.07-1.66a1.869 1.869 0 0 1 1.52 1.74c.12.96-.36 1.72-1.07 1.69zm-.29 6.31a1.8 1.8 0 0 1-1.97-1.6c0-.86 1.04-1.58 2.17-1.57a2.432 2.432 0 0 1 .73.1 2.514 2.514 0 0 1 1.22 1.2 1.055 1.055 0 0 1 .04.31c0 .88-.6 1.56-2.19 1.56z" transform="translate(-1087.84 -1741.84)"/></svg><svg width="20" height="20" viewBox="-4 -4 20 20" id="instagram" x="257" y="21" xmlns="http://www.w3.org/2000/svg"><defs><style>.ajcls-1{fill:#fff;fill-rule:evenodd}</style></defs><path class="ajcls-1" d="M9.67-.005H2.31A2.321 2.321 0 0 0-.01 2.312v7.36a2.321 2.321 0 0 0 2.32 2.317h7.36A2.33 2.33 0 0 0 12 9.672v-7.36A2.33 2.33 0 0 0 9.67-.005m.67 1.383h.27V3.41l-2.03.008-.01-2.033zM4.28 4.762a2.107 2.107 0 1 1-.4 1.23 2.107 2.107 0 0 1 .4-1.23m6.55 4.911a1.156 1.156 0 0 1-1.16 1.149H2.31a1.153 1.153 0 0 1-1.15-1.149V4.761h1.79a3.35 3.35 0 0 0-.24 1.23 3.285 3.285 0 0 0 6.57 0 3.164 3.164 0 0 0-.25-1.23h1.8v4.911z"/></svg><svg width="53" height="56" viewBox="-4 -4 53 56" id="logo-symbol" x="139" y="51" xmlns="http://www.w3.org/2000/svg"><defs><linearGradient id="aka" gradientUnits="userSpaceOnUse" x1="34.194" y1="27.349" x2="40.636" y2="32.718" gradientTransform="matrix(1.08891 0 0 1.08324 0 0)"><stop offset="0" stop-color="#f6bd79"/><stop offset="1" stop-color="#fdfdfd"/><stop offset="1" stop-color="#fdfdfd"/></linearGradient></defs><g fill-rule="evenodd"><path d="M22.96.04c-.366.019-.765.046-1.179.089-.52.05-.914.094-1.187.133-.403.058-.79.125-1.157.199-.32.062-.703.148-1.132.254h-.016c-.387.098-.766.203-1.137.312l-.02.016c-.359.11-.73.23-1.105.367l-.007-.015a30.411 30.411 0 0 0-2.188.91 27.91 27.91 0 0 0-1.055.535c-.39.207-.734.398-1.035.578-.336.203-.672.414-1.008.637-.332.222-.66.449-.968.68a25.935 25.935 0 0 0-2.7 2.297c-.12.12-.386.41-.8.859-.286.32-.543.617-.778.894-.265.328-.511.637-.734.93a24.49 24.49 0 0 0-.676.965 20.42 20.42 0 0 0-.64 1c-.18.3-.38.644-.583 1.027-.222.418-.402.773-.539 1.055a20.49 20.49 0 0 0-.476 1.082 18.16 18.16 0 0 0-.805 2.219l.008.003c-.152.5-.258.872-.32 1.122-.098.394-.184.777-.258 1.148-.078.363-.145.75-.203 1.148-.04.274-.086.664-.133 1.184-.043.414-.07.809-.09 1.176-.027.527-.039.914-.039 1.16 0 .25.012.637.04 1.164.019.367.046.758.089 1.176.047.515.094.906.133 1.18.058.402.125.785.203 1.152a26.652 26.652 0 0 0 .566 2.273l.016.016c.11.36.234.73.371 1.101l-.016.004c.086.235.23.606.438 1.098.172.414.328.773.476 1.082.133.281.317.637.54 1.05a22.6 22.6 0 0 0 1.222 2.032c.223.332.45.656.676.961.223.293.469.605.734.934.235.277.492.578.778.894.414.45.675.734.8.86.118.117.414.386.864.796a24.575 24.575 0 0 0 2.805 2.18c.335.219.671.434 1.007.633.301.18.645.375 1.035.578.418.227.77.402 1.055.535.305.145.672.305 1.086.477.5.203.867.351 1.105.437h.016c.379.133.75.254 1.113.363l.004-.007c.492.148.88.257 1.13.32.394.098.78.184 1.151.258.368.07.754.136 1.157.199.273.04.668.082 1.187.133.414.043.813.07 1.18.09.531.023.918.039 1.168.039.25 0 .64-.016 1.172-.04.367-.019.762-.046 1.18-.09.519-.05.914-.093 1.183-.132.41-.063.793-.129 1.16-.2.32-.062.703-.148 1.133-.257h.016c.386-.094.765-.2 1.136-.309h.016c.367-.113.738-.234 1.117-.37.313-.11.684-.255 1.113-.434v-.004c.41-.172.774-.328 1.075-.469.28-.133.64-.316 1.054-.539.391-.203.735-.398 1.04-.578.331-.2.663-.41.996-.633l.007.012c.2-.133.524-.364.965-.688a29.634 29.634 0 0 0 1.848-1.504l-.008-.007c.34-.305.625-.57.848-.793l.015-.016c.25-.25.528-.547.832-.883.383-.426.633-.703.77-.871l2.457-2.965-7.969-.226a17.892 17.892 0 0 1-12.953 5.496c-9.816 0-17.777-7.801-17.777-17.426 0-9.621 7.96-17.422 17.777-17.422 5.063 0 9.637 2.078 12.875 5.414v-.004l7.945-.41-2.375-2.863a26.346 26.346 0 0 0-1.609-1.766 25.319 25.319 0 0 0-1.734-1.574 28.888 28.888 0 0 0-.938-.727 23.51 23.51 0 0 0-3.012-1.894 23.052 23.052 0 0 0-1.054-.535c-.305-.145-.668-.301-1.086-.473a25.732 25.732 0 0 0-1.106-.437 27.98 27.98 0 0 0-1.117-.36l.004-.004A21.82 21.82 0 0 0 29.977.72 21.548 21.548 0 0 0 28.824.46c-.367-.074-.75-.14-1.16-.2C27.394.224 27 .18 26.48.13c-.418-.043-.812-.07-1.183-.09A24.41 24.41 0 0 0 24.129 0c-.25 0-.637.012-1.168.04m0 0zm0 0" fill="#f6881a"/><path d="M6.48 24.086c0 9.672 7.997 17.512 17.864 17.512 5.136 0 9.761-2.121 13.02-5.52l-1.141-7.25c-1.91 4.59-6.508 7.828-11.88 7.828-7.081 0-12.82-5.625-12.82-12.57 0-6.938 5.739-12.566 12.82-12.566 5.356 0 9.942 3.218 11.86 7.789l1.078-7.293c-3.25-3.348-7.847-5.438-12.937-5.438-9.867 0-17.864 7.84-17.864 17.508m0 0zm0 0" fill="#f89829"/><path d="M36.191 19.332l1.059-7.277 7.883-.41zm0 0" fill="#f6bd79"/><path d="M36.23 28.824l1.122 7.258 7.898.16zm0 0" fill="url(#aka)"/></g></svg><svg height="46" width="44" viewBox="-4 -4 44 46" id="logo-symbol-small" x="139" y="107" xmlns="http://www.w3.org/2000/svg"><rect width="100%" height="100%" fill="none"/><defs><linearGradient id="ala" spreadMethod="pad" gradientTransform="matrix(.22998 -48.54 -48.54 -.22998 65.55 77.375)" gradientUnits="userSpaceOnUse" y2="0" x2="1" y1="0" x1="0"><stop offset="0" stop-color="#f6881a"/><stop offset=".002" stop-color="#f6881a"/><stop offset="1" stop-color="#eb5208"/></linearGradient><linearGradient id="alb" spreadMethod="pad" gradientTransform="scale(34.52849 -34.52849) rotate(43.803 3.033 1.05)" gradientUnits="userSpaceOnUse" y2="0" x2="1" y1="0" x1="0"><stop offset="0" stop-color="#f89829"/><stop offset=".012" stop-color="#f89829"/><stop offset="1" stop-color="#f9a534"/></linearGradient><linearGradient id="alc" spreadMethod="pad" gradientTransform="matrix(9.23999 .45001 .45001 -9.23999 79.358 60.373)" gradientUnits="userSpaceOnUse" y2="0" x2="1" y1="0" x1="0"><stop offset="0" stop-color="#f6bd79"/><stop offset=".021" stop-color="#f6bd79"/><stop offset="1" stop-color="#f8cb94"/></linearGradient><linearGradient id="ald" spreadMethod="pad" gradientTransform="matrix(8.41003 8.16 8.16 -8.41003 79.984 40.43)" gradientUnits="userSpaceOnUse" y2="0" x2="1" y1="0" x1="0"><stop offset="0" stop-color="#f6bd79"/><stop offset=".998" stop-color="#fdfdfd"/><stop offset="1" stop-color="#fdfdfd"/></linearGradient></defs><g class="alcurrentLayer"><g stroke-width="0"><path d="M18.208.03c-.292.015-.606.039-.937.071a17.753 17.753 0 0 0-1.857.265c-.256.05-.558.121-.901.205H14.5c-.304.077-.605.16-.9.25l-.013.01c-.288.088-.583.185-.88.292l-.003-.01c-.187.066-.482.184-.875.346-.331.138-.619.263-.862.379-.225.107-.505.249-.839.427-.305.164-.58.318-.817.46a19.349 19.349 0 0 0-1.567 1.047c-.234.174-.481.368-.744.582-.545.448-1.013.867-1.397 1.25-.097.098-.309.327-.635.686-.229.254-.434.492-.615.712-.214.262-.408.51-.582.742a20.425 20.425 0 0 0-1.046 1.567c-.144.24-.298.513-.462.818-.178.333-.32.615-.428.84-.115.244-.241.532-.377.862-.163.392-.28.687-.348.876-.093.261-.19.559-.29.893l.007.004c-.12.397-.206.694-.256.893A17.919 17.919 0 0 0 .21 16.33c-.032.218-.068.53-.108.942A21.607 21.607 0 0 0 0 19.135c0 .197.01.507.03.926.015.292.039.606.071.938.04.411.076.723.108.941a18.995 18.995 0 0 0 .362 1.828c.077.304.16.605.248.9l.012.013c.088.288.185.584.292.88l-.011.003c.067.187.184.483.347.875.136.33.262.617.377.861.107.226.25.508.428.84a19.257 19.257 0 0 0 .968 1.618c.177.265.358.521.54.767.174.233.368.481.582.744.183.22.388.459.616.711.325.36.534.585.634.685.094.094.326.308.686.635.252.228.49.434.711.616.263.214.51.409.744.582a20.174 20.174 0 0 0 1.567 1.046c.238.143.512.297.817.46.334.18.614.321.84.428a25.758 25.758 0 0 0 1.738.726h.01c.301.107.597.204.884.29l.002-.007c.393.12.695.206.894.255a18.649 18.649 0 0 0 1.832.364c.217.032.53.068.942.108a21.774 21.774 0 0 0 1.864.102c.197 0 .506-.011.925-.032.293-.014.606-.038.938-.07.411-.04.724-.076.94-.108.322-.047.628-.1.919-.157.254-.05.556-.12.899-.205h.013c.303-.076.604-.159.9-.248h.012c.29-.088.586-.186.885-.293.247-.09.544-.205.884-.346l-.002-.005c.329-.136.613-.26.854-.374.224-.106.506-.25.838-.428a18.173 18.173 0 0 0 1.612-.964l.006.008c.157-.105.415-.29.764-.549.235-.174.484-.37.746-.585.302-.247.542-.452.72-.613l-.006-.006c.27-.244.494-.455.671-.632l.011-.012c.2-.2.422-.437.662-.705.304-.34.499-.56.61-.696l1.949-2.36-6.32-.181a14.15 14.15 0 0 1-10.272 4.38C11.51 33.09 5.2 26.871 5.2 19.2c0-7.67 6.31-13.89 14.093-13.89 4.018 0 7.643 1.659 10.21 4.317l6.3-.328-1.882-2.283a20.458 20.458 0 0 0-1.277-1.407 18.906 18.906 0 0 0-1.377-1.255 18.737 18.737 0 0 0-1.51-1.122 18.674 18.674 0 0 0-1.618-.968v.001a18.192 18.192 0 0 0-.837-.427 19.12 19.12 0 0 0-.863-.38c-.392-.161-.687-.279-.878-.347-.257-.09-.552-.187-.882-.287l.002-.003c-.255-.077-.56-.16-.91-.248A17.674 17.674 0 0 0 21.939.21c-.217-.033-.53-.068-.941-.109A21.499 21.499 0 0 0 19.135 0c-.199 0-.508.01-.927.03" fill="url(#ala)"/><path d="M5.139 19.2c0 7.709 6.341 13.958 14.164 13.958 4.07 0 7.74-1.692 10.323-4.401l-.904-5.779c-1.515 3.661-5.16 6.241-9.419 6.241-5.615 0-10.166-4.485-10.166-10.019 0-5.532 4.55-10.019 10.166-10.019 4.247 0 7.885 2.567 9.406 6.21l.854-5.812a14.222 14.222 0 0 0-10.26-4.336C11.48 5.243 5.14 11.492 5.14 19.2" fill="url(#alb)"/><path d="M29.507 9.522l-.808 5.862 7.104-6.085z" fill="url(#alc)"/><path d="M28.696 23.038l.88 5.771 6.309.141z" fill="url(#ald)"/></g></g></svg><svg width="139" height="36" viewBox="-4 -4 139 29" id="logo-text" xmlns="http://www.w3.org/2000/svg"><g fill="#ff7b00"><path d="M30.344.055c.32 0 .66.02 1.02.054h.003c.352.036.688.082 1.004.145a11.582 11.582 0 0 1 1.95.594c.312.132.62.277.921.441a10.124 10.124 0 0 1 1.7 1.137c.28.234.535.46.757.683.223.227.453.48.684.762.219.266.422.543.61.824.187.282.362.575.527.88a10.314 10.314 0 0 1 .777 1.89c.105.344.187.676.254.992.058.313.11.652.144 1.012a10.41 10.41 0 0 1 0 2.039c-.035.36-.086.699-.144 1.012-.067.32-.149.648-.254.992h.004c-.09.308-.207.629-.344.96a10.33 10.33 0 0 1-1.574 2.633 10.384 10.384 0 0 1-3.14 2.582 9.79 9.79 0 0 1-.919.442h-.004c-.308.125-.629.242-.96.34-.34.105-.672.187-.989.254-.316.062-.648.109-1.004.144h-.004c-.36.035-.699.055-1.02.055-.32 0-.66-.02-1.015-.055h-.004a10.594 10.594 0 0 1-1.008-.144 11.182 11.182 0 0 1-1.945-.594 10.48 10.48 0 0 1-.922-.442 9.686 9.686 0 0 1-.879-.527 10.72 10.72 0 0 1-1.578-1.297h-.004a10.918 10.918 0 0 1-1.29-1.582 10.33 10.33 0 0 1-.526-.883 10.326 10.326 0 0 1-.781-1.887h-.004a11.879 11.879 0 0 1-.246-.991c-.063-.313-.11-.653-.145-1.012-.035-.356-.055-.7-.055-1.02 0-.324.02-.664.055-1.02.035-.359.082-.698.145-1.011a10.326 10.326 0 0 1 .594-1.953c.128-.316.277-.625.437-.93a10.896 10.896 0 0 1 1.133-1.703h.004c.23-.281.457-.535.68-.762h.003a10.677 10.677 0 0 1 3.38-2.261c.308-.125.624-.243.956-.34V.504c.317-.098.649-.18.992-.25.317-.063.649-.11 1.004-.145h.004a10.38 10.38 0 0 1 1.016-.054m4.894 5.52a6.826 6.826 0 0 0-.504-.458 6.436 6.436 0 0 0-.547-.41 6.746 6.746 0 0 0-1.191-.64h-.004a5.974 5.974 0 0 0-.633-.223 7.367 7.367 0 0 0-.656-.168 8.31 8.31 0 0 0-.672-.102 7.31 7.31 0 0 0-.687-.027c-.254 0-.48.008-.684.027a9.73 9.73 0 0 0-.672.102 6.74 6.74 0 0 0-.656.168c-.234.07-.445.144-.637.222a9.085 9.085 0 0 0-.613.29c-.195.105-.39.226-.582.351a8.181 8.181 0 0 0-.543.406c-.172.14-.34.297-.508.461v.004a7.157 7.157 0 0 0-.867 1.055 6.929 6.929 0 0 0-1.16 3.855 6.702 6.702 0 0 0 .133 1.36 7.077 7.077 0 0 0 .39 1.3 6.765 6.765 0 0 0 .637 1.196 6.857 6.857 0 0 0 .867 1.055v-.004c.18.18.352.335.508.468a6.97 6.97 0 0 0 2.375 1.27c.215.066.434.12.656.164a6.703 6.703 0 0 0 1.36.133 6.703 6.703 0 0 0 1.355-.133c.219-.043.438-.098.656-.164.235-.07.45-.149.637-.227.211-.086.418-.183.613-.289.196-.105.387-.222.582-.347.188-.13.371-.266.543-.41.16-.13.328-.282.508-.462a8.25 8.25 0 0 0 .461-.507 6.4 6.4 0 0 0 .406-.547 5.63 5.63 0 0 0 .348-.586c.105-.195.203-.399.29-.61a7.087 7.087 0 0 0 .491-1.972 7.22 7.22 0 0 0 .032-.688 6.771 6.771 0 0 0-.133-1.363 7.003 7.003 0 0 0-.164-.656 6.628 6.628 0 0 0-.223-.637 7.027 7.027 0 0 0-1.504-2.254zm0 0M115.266.148h15.71v3.606h-6.73v.004h-3.594v-.004h-6.726V.148zm8.98 3.622v17.058h-3.594V7.375zm0 0M78.914.055c.32 0 .66.02 1.016.054h.004c.355.036.691.082 1.004.145.316.062.648.148.992.254.34.101.66.215.96.34.313.132.618.277.919.441.308.164.601.34.879.527.28.188.554.391.824.61.281.234.535.46.758.683l.003.012c.122.125.243.262.364.383l.16.18c.183.261.441.543.648.796l-2.652 2.211-.715-.832h-.004l-.078-.09-.187-.19a6.392 6.392 0 0 0-.508-.462 7.057 7.057 0 0 0-.543-.41 9.22 9.22 0 0 0-.582-.352 6.38 6.38 0 0 0-1.25-.512 6.74 6.74 0 0 0-1.328-.269 7.224 7.224 0 0 0-.684-.027 7.31 7.31 0 0 0-.687.027 10.5 10.5 0 0 0-.672.102 6.966 6.966 0 0 0-.653.168c-.23.066-.441.14-.636.222h-.004c-.211.09-.414.184-.614.29a9.22 9.22 0 0 0-.582.351 8.181 8.181 0 0 0-.543.406 8.405 8.405 0 0 0-.507.465 8.25 8.25 0 0 0-.461.508 6.4 6.4 0 0 0-.407.547 6.765 6.765 0 0 0-.863 1.836A7.32 7.32 0 0 0 72.02 9.8a7.22 7.22 0 0 0-.032.687 6.538 6.538 0 0 0 .133 1.36 7.077 7.077 0 0 0 .39 1.3 6.765 6.765 0 0 0 .637 1.196 6.4 6.4 0 0 0 .407.547c.14.171.293.34.457.507l.004.004a6.364 6.364 0 0 0 1.055.863 6.4 6.4 0 0 0 .581.352 6.323 6.323 0 0 0 1.25.516 6.929 6.929 0 0 0 5.856-.863c.187-.13.37-.266.543-.41a6.2 6.2 0 0 0 .484-.438l.883-.953.777.344 2.008 1.675c-.21.254-.469.54-.656.805l-.16.18c-.125.125-.242.261-.367.386a10.633 10.633 0 0 1-1.582 1.301c-.278.188-.57.363-.88.527-.3.16-.605.31-.917.438-.301.129-.621.242-.961.344a9.763 9.763 0 0 1-.993.254c-.312.062-.648.109-1.003.144h-.004a10.38 10.38 0 0 1-1.016.055c-.32 0-.664-.02-1.02-.055h-.003a10.692 10.692 0 0 1-1.004-.144 11.253 11.253 0 0 1-1.953-.594 12.344 12.344 0 0 1-.918-.442c-.305-.164-.602-.34-.88-.527-.28-.187-.554-.39-.823-.61-.278-.234-.536-.46-.758-.687h.004a10.585 10.585 0 0 1-1.82-2.465 10.012 10.012 0 0 1-.778-1.886 9.763 9.763 0 0 1-.254-.992 11.568 11.568 0 0 1-.2-2.032c0-.324.02-.668.055-1.023.036-.36.083-.695.145-1.008.063-.32.148-.648.254-.992a10.314 10.314 0 0 1 1.914-3.594c.23-.281.457-.535.68-.762.222-.222.476-.449.757-.683.27-.219.543-.422.825-.614.277-.187.574-.359.879-.523.3-.164.609-.309.918-.437.3-.13.62-.243.96-.348.344-.102.676-.188.993-.25A9.543 9.543 0 0 1 77.89.109h.004c.355-.035.699-.054 1.02-.054zm0 0M10.402.055c.32 0 .66.02 1.016.054h.004c.355.036.691.082 1.008.145.343.07.672.152.988.25v.004a9.851 9.851 0 0 1 1.883.781c.304.164.597.34.879.527a10.858 10.858 0 0 1 1.578 1.293l.012.016c.117.125.238.258.355.379.281.32.543.644.809.976l-2.645 2.207-.727-.832c-.085-.093-.171-.187-.261-.277h-.004a7.161 7.161 0 0 0-1.05-.871 7.311 7.311 0 0 0-1.191-.64 6.724 6.724 0 0 0-.642-.223 6.966 6.966 0 0 0-.652-.168 10.199 10.199 0 0 0-.676-.102c-.2-.02-.43-.027-.684-.027-.254 0-.48.008-.683.027-.211.024-.438.059-.676.102a6.966 6.966 0 0 0-.652.168c-.239.07-.45.144-.641.222a7.311 7.311 0 0 0-1.191.641 6.436 6.436 0 0 0-.547.41c-.172.14-.34.293-.504.457l-.004.004a6.873 6.873 0 0 0-.457.508 6.983 6.983 0 0 0-.758 1.129c-.105.195-.2.402-.289.613a6.724 6.724 0 0 0-.223.64 7.003 7.003 0 0 0-.265 2.708c.02.21.054.437.101.672.043.218.098.441.164.66.07.238.145.449.223.64.09.211.184.415.29.61.105.199.222.394.35.586a6.364 6.364 0 0 0 .868 1.054c.18.18.347.332.504.465.176.14.355.278.547.403.191.129.386.246.582.351.187.102.39.2.613.29.187.081.402.155.637.226a6.772 6.772 0 0 0 2.012.297c.253 0 .484-.012.687-.032.207-.02.433-.054.672-.101.222-.043.441-.098.652-.16.238-.075.45-.153.64-.23a6.765 6.765 0 0 0 1.739-1.044c.156-.133.324-.289.504-.468l.863-.926.777.344 2.004 1.671c-.21.258-.464.54-.656.809l-.156.18c-.125.125-.246.261-.371.386a10.633 10.633 0 0 1-2.457 1.828 9.845 9.845 0 0 1-.922.442h-.004a9.851 9.851 0 0 1-.957.34v.004c-.316.097-.648.18-.988.25-.317.062-.653.109-1.008.144h-.004a10.38 10.38 0 0 1-1.016.055c-.32 0-.66-.02-1.015-.055h-.004a10.594 10.594 0 0 1-1.008-.144 11.182 11.182 0 0 1-1.945-.594 10.551 10.551 0 0 1-3.383-2.266c-.223-.222-.45-.476-.684-.758-.215-.27-.422-.543-.61-.824a10.3 10.3 0 0 1-.523-.883 10.326 10.326 0 0 1-.781-1.887H.445A10.52 10.52 0 0 1 .2 12.52a9.473 9.473 0 0 1-.144-1.008v-.004c-.035-.36-.055-.7-.055-1.02 0-.324.02-.664.055-1.02v-.003c.03-.356.082-.692.144-1.008.067-.344.153-.676.246-.996H.45a10.665 10.665 0 0 1 1.305-2.766c.187-.28.394-.554.61-.824.23-.281.46-.535.683-.762a10.858 10.858 0 0 1 1.578-1.293A10.552 10.552 0 0 1 6.43.847c.304-.124.625-.238.957-.34V.505c.316-.098.644-.18.988-.25.316-.063.652-.11 1.008-.145h.004a10.38 10.38 0 0 1 1.015-.054zm0 0M65.277 11.387a12.256 12.256 0 0 1-.21 2.219c-.07.367-.16.726-.262 1.082a12.101 12.101 0 0 1-.832 2.058 9.772 9.772 0 0 1-.559.961c-.195.305-.414.605-.648.898-.23.29-.473.567-.723.829-.133.132-.262.257-.398.386l-.211.192c-.22.222-.551.472-.797.68l-2.27-2.81.715-.636c.129-.11.043-.031.113-.09v-.004l.102-.097.2-.203c.179-.18.347-.372.5-.567.151-.187.3-.39.437-.61.136-.206.265-.425.379-.644.12-.238.23-.465.316-.683.086-.211.168-.45.242-.711a8.087 8.087 0 0 0 .29-1.484 9.049 9.049 0 0 0 0-1.531 8.206 8.206 0 0 0-.532-2.192 6.5 6.5 0 0 0-.316-.68 6.45 6.45 0 0 0-.38-.656 7.278 7.278 0 0 0-.937-1.172 7.35 7.35 0 0 0-1.133-.965 7.085 7.085 0 0 0-.633-.383l.004-.004a7.915 7.915 0 0 0-.66-.32h-.004a7.145 7.145 0 0 0-.683-.254 7.826 7.826 0 0 0-1.434-.293 7.092 7.092 0 0 0-.738-.035c-.27 0-.516.012-.738.035a7.826 7.826 0 0 0-.723.113c-.266.051-.5.114-.707.176-.219.07-.45.156-.688.258h-.004a7.263 7.263 0 0 0-.656.32v.004c-.242.13-.449.262-.633.383-.199.14-.394.293-.586.453a8.262 8.262 0 0 0-.546.512 8.5 8.5 0 0 0-.5.566 7.77 7.77 0 0 0-.816 1.258c-.122.238-.227.465-.317.68l.008.004c-.098.23-.18.468-.25.71-.07.243-.13.485-.176.731v.004a7.03 7.03 0 0 0-.11.746c-.023.23-.03.484-.03.766 0 .281.007.539.03.765.024.243.059.493.11.75.047.25.105.496.176.735.078.261.16.5.242.71h.008c.093.239.199.47.308.684.117.219.242.438.38.645a7.445 7.445 0 0 0 .913 1.156l.969.93-.34.793-1.738 2.152c-.5-.43-.953-.809-1.41-1.273a11.29 11.29 0 0 1-.727-.825 11.633 11.633 0 0 1-2.04-3.922 11.18 11.18 0 0 1-.257-1.082c-.07-.343-.12-.714-.156-1.101-.04-.39-.059-.762-.059-1.117 0-.352.02-.723.059-1.114.035-.39.086-.757.156-1.105.067-.363.156-.723.258-1.078.102-.336.223-.684.367-1.047.149-.363.301-.703.465-1.016.172-.328.36-.648.559-.957.207-.316.425-.617.648-.902a11.4 11.4 0 0 1 2.406-2.242c.313-.215.621-.41.93-.578v-.004c.316-.172.645-.332.984-.477a9.952 9.952 0 0 1 1.02-.375c.34-.105.691-.195 1.05-.27V.22c.337-.07.696-.121 1.079-.16.375-.04.738-.059 1.082-.059.347 0 .707.02 1.086.059.383.039.738.09 1.074.16v.004a10.766 10.766 0 0 1 3.055 1.121c.308.172.62.363.93.582.304.207.597.43.874.668.286.242.559.492.805.75.254.258.496.535.727.824.234.297.453.598.648.902.203.309.39.63.563.957.16.317.312.653.46 1.016a11.247 11.247 0 0 1 .786 3.23c.035.391.054.762.054 1.114zm0 0M112.137 9.375a12.256 12.256 0 0 0-.21-2.215c-.072-.367-.161-.726-.263-1.082a11.731 11.731 0 0 0-.371-1.047c-.14-.363-.297-.699-.461-1.011a10.622 10.622 0 0 0-.559-.961 10.627 10.627 0 0 0-.648-.899c-.23-.293-.473-.566-.723-.828a18.61 18.61 0 0 0-.398-.387l-.211-.191c-.219-.223-.55-.473-.797-.68l-2.27 2.809.715.633c.13.113.043.035.114.093v.004l.101.098.2.2a7.416 7.416 0 0 1 .937 1.175 7.78 7.78 0 0 1 .695 1.332 8.761 8.761 0 0 1 .422 1.445c.047.262.086.512.11.75.02.227.03.485.03.762 0 .285-.01.54-.03.766a8.146 8.146 0 0 1-.114.75c-.047.25-.105.496-.176.734a7.137 7.137 0 0 1-.558 1.39 7.277 7.277 0 0 1-.817 1.262c-.152.192-.32.383-.5.567a7.122 7.122 0 0 1-1.766 1.348l.005.003a7.915 7.915 0 0 1-.66.32h-.004a7.144 7.144 0 0 1-.684.255 7.826 7.826 0 0 1-1.434.293 7.091 7.091 0 0 1-.738.035c-.27 0-.515-.012-.738-.035a7.826 7.826 0 0 1-1.434-.293 7.144 7.144 0 0 1-.683-.254h-.004a8.477 8.477 0 0 1-.656-.32v-.005a8.808 8.808 0 0 1-.63-.382 8.154 8.154 0 0 1-.59-.454 8.262 8.262 0 0 1-.546-.511 8.5 8.5 0 0 1-.5-.567 7.77 7.77 0 0 1-1.129-1.938v-.003a7.943 7.943 0 0 1-.422-1.441v-.004a7.534 7.534 0 0 1-.14-1.512 7.565 7.565 0 0 1 .14-1.516c.047-.25.106-.496.176-.734.078-.266.16-.5.242-.711h.004c.098-.238.203-.469.313-.684a8.26 8.26 0 0 1 .816-1.257c.148-.188.309-.368.477-.543l.972-.93-.344-.793L94.66.059c-.5.43-.953.808-1.41 1.273-.254.258-.496.535-.727.824a11.633 11.633 0 0 0-1.207 1.863c-.16.313-.316.649-.46 1.012-.149.364-.27.711-.368 1.047a12.215 12.215 0 0 0-.422 2.184c-.035.39-.054.765-.054 1.113 0 .355.02.727.058 1.117.035.39.09.758.157 1.102a11.194 11.194 0 0 0 .628 2.129c.145.363.301.699.461 1.011.172.332.36.653.559.961h.004a10.528 10.528 0 0 0 1.371 1.727 11.399 11.399 0 0 0 1.68 1.418c.312.215.62.41.93.578v.004c.316.172.644.332.98.476a10.668 10.668 0 0 0 2.078.645v.004c.332.07.691.121 1.074.16.375.04.738.059 1.082.059.348 0 .707-.02 1.086-.059.383-.039.738-.09 1.074-.16v-.004c.364-.074.715-.164 1.051-.27a10.73 10.73 0 0 0 2.004-.852c.309-.171.617-.366.93-.581.304-.207.597-.43.875-.668a10.67 10.67 0 0 0 1.531-1.574c.234-.293.453-.598.648-.903.2-.308.391-.629.559-.96.164-.313.316-.65.461-1.012.148-.364.27-.711.371-1.047.102-.356.191-.715.262-1.078a12.486 12.486 0 0 0 .21-2.223zm0 0"/></g></svg><svg width="19" height="22.97" viewBox="-4 -4 19 22.97" id="marker" y="193.01" xmlns="http://www.w3.org/2000/svg"><defs><style>.ancls-1{fill:#ff6c00;fill-rule:evenodd}</style></defs><path id="anMarker" class="ancls-1" d="M466.552 923a5.427 5.427 0 0 1 5.437 5.36c0 2.837-3.1 9.6-5.5 9.6s-5.49-6.852-5.49-9.6a5.528 5.528 0 0 1 5.553-5.36zm-.065 2.992a1.548 1.548 0 1 1-1.547 1.548 1.548 1.548 0 0 1 1.547-1.548z" transform="translate(-461 -923)"/></svg><svg width="16.06" height="22.12" viewBox="-4 -4 16.06 22.12" id="ok" x="240" y="107" xmlns="http://www.w3.org/2000/svg"><defs><style>.aocls-1{fill:#fff;fill-rule:evenodd}</style></defs><path id="aoShape_1_copy_4" data-name="Shape 1 copy 4" class="aocls-1" d="M1092.6 1787.19a3.635 3.635 0 1 0-3.6-3.63 3.615 3.615 0 0 0 3.6 3.63zm0-5.14a1.505 1.505 0 1 1-1.49 1.51 1.5 1.5 0 0 1 1.49-1.51zm1.45 8.11a6.843 6.843 0 0 0 2.09-.88 1.074 1.074 0 0 0 .33-1.47 1.035 1.035 0 0 0-1.45-.33 4.547 4.547 0 0 1-4.84 0 1.045 1.045 0 0 0-1.46.33 1.074 1.074 0 0 0 .33 1.47 6.843 6.843 0 0 0 2.09.88l-2.01 2.03a1.07 1.07 0 0 0 .75 1.82 1.024 1.024 0 0 0 .74-.32l1.98-1.99 1.97 1.99a1.038 1.038 0 0 0 1.49 0 1.068 1.068 0 0 0 0-1.5z" transform="translate(-1088.56 -1779.91)"/></svg><svg width="44" height="47" viewBox="-4 -4 44 47" id="price" x="192" y="51" xmlns="http://www.w3.org/2000/svg"><path d="M35.594 13.309l-1.864-.91a1.398 1.398 0 0 0-.14-1.395c.043-.047.078-.098.113-.152l.606-1.254c.164-.332.187-.715.066-1.063a1.356 1.356 0 0 0-.707-.797l-1.25-.617a1.383 1.383 0 0 0-1.848.649l-.613 1.242c-.031.062-.031.133-.055.203a1.322 1.322 0 0 0-1.183.746l-.903 1.851-1.39 2.864-5.059 10.398-.668 1.383-.508 1.023c-.07.133-.117.278-.136.426l-.125.989-.239 1.742-.18 1.394-.027.235a1.42 1.42 0 0 0 .766 1.433c.54.254 1.18.14 1.598-.281l1.363-1.387.434-.445.582-.606.707-.71c.097-.106.18-.227.25-.352l1.238-2.55 1.39-2.852 5.301-10.864 1.25.61-3.965 8.12a.694.694 0 0 0 .032.712.7.7 0 0 0 1.219-.094l4.257-8.75a.69.69 0 0 0 .047-.535.71.71 0 0 0-.36-.406zM20.867 32.445l.055-.414.18-1.394.14-1.106 1.684.813-.293.293-1.363 1.394zM27.82 21.34l-1.39 2.851-2.492 5.11-2.489-1.223.793-1.621.668-1.383 3.52-7.222L27.82 15l2.153-4.422.629.305 1.25.605.625.317zm4.645-11.106L31.21 9.63l.613-1.254 1.238.617zM19.477 4.2H8.347c-.765 0-1.386.625-1.39 1.395v2.781a1.4 1.4 0 0 0 1.39 1.395h11.13a1.4 1.4 0 0 0 1.39-1.395V5.594a1.397 1.397 0 0 0-1.39-1.395zm0 4.176H8.347V5.594h11.13zM11.52 2.812a2.75 2.75 0 0 1 2.39-1.398c.992 0 1.906.535 2.395 1.399h1.515a4.146 4.146 0 1 0-7.828 0zM8.348 13.938v2.792H5.566v-2.793h2.782m0-1.386H5.566c-.367 0-.718.144-.98.406a1.38 1.38 0 0 0-.41.98v2.793a1.39 1.39 0 0 0 1.39 1.383h2.782a1.39 1.39 0 0 0 1.39-1.383v-2.793a1.386 1.386 0 0 0-1.39-1.387zm0 9.742v2.781H5.566v-2.781h2.782m0-1.398H5.566c-.77.003-1.39.628-1.39 1.398v2.781a1.387 1.387 0 0 0 1.39 1.383h2.782a1.382 1.382 0 0 0 1.39-1.383v-2.781a1.395 1.395 0 0 0-1.39-1.398zm0 9.742v2.781H5.566v-2.781h2.782m0-1.387H5.566c-.367 0-.718.145-.98.406-.262.258-.41.61-.41.98v2.782c0 .77.62 1.39 1.39 1.395h2.782a1.392 1.392 0 0 0 1.39-1.395v-2.781a1.386 1.386 0 0 0-1.39-1.387zm15.297-13.918H12.52v-1.395h11.125zm0 2.781H12.52V16.73h11.125zm2.796 12.41c-.007.004-.011.012-.015.02v7.05H1.395V6.989h4.171V5.594H1.395A1.397 1.397 0 0 0 .004 6.988v30.606a1.398 1.398 0 0 0 1.39 1.386H26.43a1.4 1.4 0 0 0 1.39-1.386V27.69zM26.426 11.5l1.047-2.145c.09-.19.207-.375.343-.535V6.988c0-.77-.62-1.39-1.39-1.394h-4.172v1.394h4.172zm-5.254 10.793H12.52v1.383h7.98zm-1.723 3.559l.375-.778H12.52v1.383h6.628zm-1.156 4.785H12.52v1.394h5.597zm.008 2.781H12.52v1.395h6.933a2.785 2.785 0 0 1-1.152-1.395zm0 0" fill="#fa922a"/></svg><svg width="26" height="27" viewBox="-4 -4 26 27" id="search" x="107" y="123" xmlns="http://www.w3.org/2000/svg"><defs><style>.aqcls-1{fill:#fa942e;fill-rule:evenodd}</style></defs><path id="aqSearch" class="aqcls-1" d="M79.418 7548.56a1.716 1.716 0 0 1-2.424-.14l-4.12-4.65a7.246 7.246 0 0 1-9.016-1.51 7.4 7.4 0 0 1 .578-10.39 7.254 7.254 0 0 1 10.3.58 7.41 7.41 0 0 1 .649 8.96l4.165 4.7a1.748 1.748 0 0 1-.132 2.45zm-6.582-14.39a4.716 4.716 0 0 0-6.7-.38 4.819 4.819 0 0 0-.376 6.76 4.716 4.716 0 0 0 6.7.37 4.806 4.806 0 0 0 .376-6.75z" transform="translate(-62 -7530)"/></svg><svg width="19" height="43" viewBox="-4 -4 19 43" id="slider-arrow" x="221" y="107" xmlns="http://www.w3.org/2000/svg"><path d="M10.543 34.871a.955.955 0 0 0 .336-1.281L1.797 17.5l9.082-16.09A.955.955 0 0 0 10.543.13a.908.908 0 0 0-1.254.344L.121 16.71a.953.953 0 0 0-.066.789c-.09.25-.075.54.066.79L9.29 34.526a.908.908 0 0 0 1.254.344zm0 0" fill="#fff"/></svg><svg width="19" height="43" viewBox="-4 -4 19 43" id="slider-arrow-black" x="202" y="107" xmlns="http://www.w3.org/2000/svg"><path d="M10.543 34.871a.955.955 0 0 0 .336-1.281L1.797 17.5l9.082-16.09A.955.955 0 0 0 10.543.13a.908.908 0 0 0-1.254.344L.121 16.71a.953.953 0 0 0-.066.789c-.09.25-.075.54.066.79L9.29 34.526a.908.908 0 0 0 1.254.344zm0 0"/></svg><svg width="19" height="43" viewBox="-4 -4 19 43" id="slider-arrow-gray" x="183" y="107" xmlns="http://www.w3.org/2000/svg"><path d="M10.543 34.871a.955.955 0 0 0 .336-1.281L1.797 17.5l9.082-16.09A.955.955 0 0 0 10.543.13a.908.908 0 0 0-1.254.344L.121 16.71a.953.953 0 0 0-.066.789c-.09.25-.075.54.066.79L9.29 34.526a.908.908 0 0 0 1.254.344zm0 0" fill="#a9a9a9"/></svg><svg width="19" height="43" viewBox="-4 -4 19 43" id="slider-arrow-hover" x="236" y="51" xmlns="http://www.w3.org/2000/svg"><path d="M10.543 34.871a.955.955 0 0 0 .336-1.281L1.797 17.5l9.082-16.09A.955.955 0 0 0 10.543.13a.908.908 0 0 0-1.254.344L.121 16.71a.953.953 0 0 0-.066.789c-.09.25-.075.54.066.79L9.29 34.526a.908.908 0 0 0 1.254.344zm0 0" fill="#ff7814"/></svg><svg width="107" height="122" viewBox="-4 -4 107 122" id="target" y="36" xmlns="http://www.w3.org/2000/svg"><path d="M96.988 12.637h-8.285l3.262-3.278c.687-.699.687-1.816 0-2.511a1.746 1.746 0 0 0-1.25-.528 1.75 1.75 0 0 0-1.246.528l-3.258 3.277V1.781A1.76 1.76 0 0 0 84.445.023c-.972 0-1.765.786-1.765 1.758v11.89l-2.743 2.759V8.102a1.762 1.762 0 0 0-3.523 0v11.886l-2.746 2.762v-8.34a1.767 1.767 0 0 0-2.66-1.559c-.551.32-.883.922-.867 1.56V26.3L41.07 55.566a1.78 1.78 0 0 0 0 2.512c.327.332.773.52 1.245.52.47 0 .918-.188 1.25-.52l29.07-29.27h11.81c.984 0 1.78-.792 1.78-1.773 0-.976-.796-1.77-1.78-1.77h-8.282l2.742-2.765h11.809a1.778 1.778 0 0 0 0-3.555H82.43l2.746-2.761h11.812c.98 0 1.778-.793 1.778-1.774 0-.98-.797-1.773-1.778-1.773zm-22.89 19.718l-.88.887c10.778 14.356 10.25 34.227-1.273 47.985-11.52 13.765-31.007 17.808-47.07 9.765C8.816 82.95.41 64.942 4.566 47.488 8.72 30.035 24.348 17.73 42.312 17.766a38.438 38.438 0 0 1 23.426 7.945l.871-.875V21.96a41.893 41.893 0 0 0-24.296-7.75C22.66 14.082 5.472 27.398.706 46.438c-4.762 19.039 4.133 38.859 21.535 47.98 17.403 9.117 38.793 5.168 51.778-9.563 12.988-14.734 14.19-36.421 2.925-52.5zM49.324 57.301a7.044 7.044 0 0 1-7.215 6.508 7.038 7.038 0 0 1-6.847-6.895 7.032 7.032 0 0 1 6.574-7.148l3.207-3.23a10.745 10.745 0 0 0-12.14 4.905 10.702 10.702 0 0 0 1.64 12.97 10.751 10.751 0 0 0 12.977 1.741 10.716 10.716 0 0 0 5.007-12.078zM61.06 98.92c-1.075.493-2.16.938-3.278 1.349l1.485 4.484H25.363l1.485-4.484a44.598 44.598 0 0 1-3.274-1.348l-4.094 12.367a1.779 1.779 0 0 0 1.114 2.242c.18.067.367.102.558.102a1.777 1.777 0 0 0 1.672-1.219l1.367-4.113H60.45l1.36 4.113a1.78 1.78 0 0 0 1.671 1.219c.192 0 .38-.035.56-.102a1.776 1.776 0 0 0 1.112-2.242zm.75-54.187c5.394 8.88 4.105 20.278-3.133 27.735-7.242 7.457-18.61 9.101-27.668 3.988-9.055-5.105-13.52-15.672-10.863-25.715 2.656-10.043 11.765-17.027 22.168-17 4.253 0 8.414 1.2 12.011 3.457l2.567-2.582a26.19 26.19 0 0 0-14.575-4.422c-12.222-.086-22.93 8.145-25.984 19.961-3.047 11.817 2.348 24.192 13.09 30.016 10.738 5.824 24.07 3.601 32.336-5.387 8.262-8.992 9.344-22.445 2.613-32.633zm0 0" fill="#fff"/></svg><svg width="21.31" height="18.72" viewBox="-4 -4 21.31 18.72" id="twitter" x="41.25" y="193.01" xmlns="http://www.w3.org/2000/svg"><defs><style>.awcls-1{fill:#fff;fill-rule:evenodd}</style></defs><path id="awShape_1_copy_2" data-name="Shape 1 copy 2" class="awcls-1" d="M1100.1 1623.74a5.882 5.882 0 0 1-1.57.43 2.792 2.792 0 0 0 1.2-1.5 5.7 5.7 0 0 1-1.74.66 2.731 2.731 0 0 0-4.72 1.84 2.508 2.508 0 0 0 .07.62 7.8 7.8 0 0 1-5.64-2.82 2.672 2.672 0 0 0 .85 3.6 2.726 2.726 0 0 1-1.24-.33v.03a2.711 2.711 0 0 0 2.19 2.65 2.844 2.844 0 0 1-.72.1 2.937 2.937 0 0 1-.51-.05 2.733 2.733 0 0 0 2.55 1.87 5.471 5.471 0 0 1-3.39 1.16 4.632 4.632 0 0 1-.65-.04 7.778 7.778 0 0 0 11.96-6.47c0-.12 0-.24-.01-.35a5.523 5.523 0 0 0 1.37-1.4z" transform="translate(-1086.78 -1622.47)"/></svg><svg viewBox="-4 -4 16 17" width="16" height="17" id="vk" x="257" y="41" xmlns="http://www.w3.org/2000/svg"><defs><style>.axcls-1{fill:#fff;fill-rule:evenodd}</style></defs><path class="axcls-1" d="M6.8 4.777a2.529 2.529 0 0 0-1.37-.715v-.048a1.928 1.928 0 0 0 .93-.754 2.2 2.2 0 0 0 .1-2.172 1.8 1.8 0 0 0-.74-.694 3.023 3.023 0 0 0-.98-.317A11.6 11.6 0 0 0 3.2.001H-.04v8.985h3.68a6.07 6.07 0 0 0 1.57-.169 3.16 3.16 0 0 0 1.14-.567 2.318 2.318 0 0 0 .7-.839 2.588 2.588 0 0 0 .26-1.177 2.038 2.038 0 0 0-.51-1.457zM4.25 3.061a.751.751 0 0 1-.38.35 1.407 1.407 0 0 1-.5.126c-.15.008-.43.012-.83.012h-.29v-1.9h.16q.63 0 .93.009a1.49 1.49 0 0 1 .54.105.709.709 0 0 1 .36.332.944.944 0 0 1 .11.447 1.211 1.211 0 0 1-.1.519zm.54 3.714a.928.928 0 0 1-.46.39 1.981 1.981 0 0 1-.71.162c-.23.008-.64.012-1.24.012h-.13V5.088h.43c.41 0 .74 0 .98.009a1.824 1.824 0 0 1 .58.087 1.038 1.038 0 0 1 .52.356 1.052 1.052 0 0 1 .17.653 1.126 1.126 0 0 1-.14.581z" data-name="В copy 2"/></svg><svg width="24" height="18" viewBox="-4 -4 24 18" id="watch" x="144.01" y="158" xmlns="http://www.w3.org/2000/svg"><defs><style>.aycls-1{fill:#fff;fill-rule:evenodd;opacity:.5}</style></defs><path id="ayWatch_copy_2" data-name="Watch copy 2" class="aycls-1" d="M1109.85 3051.25a1.276 1.276 0 1 1 1.28 1.22 1.252 1.252 0 0 1-1.28-1.22zm7.16.75c-3.93 4.56-8.04 4.63-12.02 0a9.887 9.887 0 0 1 4.07-3 2.935 2.935 0 0 0-1.06 2.25 3.128 3.128 0 0 0 6.25 0 2.922 2.922 0 0 0-1.01-2.21 10.121 10.121 0 0 1 3.77 2.96zm-14.01 0s3.58 5 8 5 8-5 8-5-3.58-5-8-5-8 5-8 5z" transform="translate(-1103 -3047)"/></svg><svg width="24" height="18" viewBox="-4 -4 24 18" id="watch-black" x="120.00999999999999" y="158" xmlns="http://www.w3.org/2000/svg"><defs><style>.azcls-1{fill:#000;fill-rule:evenodd}</style></defs><path id="azWatch_copy_2" data-name="Watch copy 2" class="azcls-1" d="M1109.85 3051.25a1.276 1.276 0 1 1 1.28 1.22 1.252 1.252 0 0 1-1.28-1.22zm7.16.75c-3.93 4.56-8.04 4.63-12.02 0a9.887 9.887 0 0 1 4.07-3 2.935 2.935 0 0 0-1.06 2.25 3.128 3.128 0 0 0 6.25 0 2.922 2.922 0 0 0-1.01-2.21 10.121 10.121 0 0 1 3.77 2.96zm-14.01 0s3.58 5 8 5 8-5 8-5-3.58-5-8-5-8 5-8 5z" transform="translate(-1103 -3047)"/></svg><svg width="24" height="18" viewBox="-4 -4 24 18" id="watch-hover" x="96.00999999999999" y="158" xmlns="http://www.w3.org/2000/svg"><defs><style>.bacls-1{fill:#ff6c00;fill-rule:evenodd}</style></defs><path id="baWatch_copy" data-name="Watch copy" class="bacls-1" d="M737.852 3051.25a1.274 1.274 0 1 1 1.273 1.22 1.25 1.25 0 0 1-1.273-1.22zm7.157.75c-3.924 4.56-8.035 4.63-12.018 0a9.885 9.885 0 0 1 4.069-3 2.938 2.938 0 0 0-1.06 2.25 3.128 3.128 0 0 0 6.25 0 2.913 2.913 0 0 0-1.015-2.21 10.076 10.076 0 0 1 3.774 2.96zM731 3052s3.582 5 8 5 8-5 8-5-3.582-5-8-5-8 5-8 5z" transform="translate(-731 -3047)"/></svg><svg width="21" height="21" viewBox="-4 -4 21 21" id="youtube" x="257" xmlns="http://www.w3.org/2000/svg"><defs><style>.bbcls-1{fill:#fff;fill-rule:evenodd}</style></defs><path class="bbcls-1" d="M10.64 6.036H2.38A2.427 2.427 0 0 0 .01 8.519v1.995A2.428 2.428 0 0 0 2.38 13h8.26a2.428 2.428 0 0 0 2.37-2.482V8.519a2.427 2.427 0 0 0-2.37-2.483M4.12 7.589h-.77v3.983h-.74V7.59h-.77v-.678h2.28v.678zm2.16 3.983h-.65V11.2a1.577 1.577 0 0 1-.38.317.768.768 0 0 1-.39.111.4.4 0 0 1-.34-.154.817.817 0 0 1-.11-.461v-2.88h.65v2.639a.366.366 0 0 0 .04.176.173.173 0 0 0 .14.055.345.345 0 0 0 .18-.072.8.8 0 0 0 .21-.186V8.133h.65v3.44zm2.39-.711a.9.9 0 0 1-.15.56.558.558 0 0 1-.45.2.734.734 0 0 1-.34-.076.892.892 0 0 1-.29-.234v.265h-.66V6.912h.66v1.5a1.067 1.067 0 0 1 .29-.238.6.6 0 0 1 .3-.082.564.564 0 0 1 .48.219 1.065 1.065 0 0 1 .16.643v1.908zm2.28-.926H9.69v.648a.8.8 0 0 0 .07.376.236.236 0 0 0 .22.1.263.263 0 0 0 .23-.088.79.79 0 0 0 .07-.392v-.152h.67v.173a1.12 1.12 0 0 1-.25.8.932.932 0 0 1-.73.265.889.889 0 0 1-.7-.283 1.119 1.119 0 0 1-.25-.78V9.058a.977.977 0 0 1 .28-.728.951.951 0 0 1 .72-.282.892.892 0 0 1 .69.261 1.069 1.069 0 0 1 .24.749v.878zm-.96-1.287a.267.267 0 0 0-.23.1.575.575 0 0 0-.07.308V9.4h.59v-.348a.575.575 0 0 0-.07-.308.26.26 0 0 0-.22-.1m-2.27-.011a.331.331 0 0 0-.14.032.518.518 0 0 0-.14.105v2.15a.712.712 0 0 0 .16.122.376.376 0 0 0 .16.036.216.216 0 0 0 .18-.073.458.458 0 0 0 .05-.236V8.992a.474.474 0 0 0-.06-.264.258.258 0 0 0-.21-.089M2.47 0l.99 3.032V5.02h.84V2.941L5.27 0h-.85L3.9 2.007h-.05L3.31 0h-.84zm3.16 1.478a.852.852 0 0 0-.3.686v1.92a1.006 1.006 0 0 0 .29.751 1.066 1.066 0 0 0 .78.281 1.117 1.117 0 0 0 .79-.271.984.984 0 0 0 .29-.745V2.189a.917.917 0 0 0-.29-.694 1.1 1.1 0 0 0-.76-.268 1.187 1.187 0 0 0-.8.255m1.09.657v2.019a.309.309 0 0 1-.09.235.3.3 0 0 1-.23.085.294.294 0 0 1-.23-.084.344.344 0 0 1-.08-.235V2.138a.273.273 0 0 1 .08-.2.337.337 0 0 1 .23-.074.355.355 0 0 1 .23.074.246.246 0 0 1 .09.2m3.47 2.885v-3.7h-.74v2.811a.922.922 0 0 1-.23.2.408.408 0 0 1-.2.077.176.176 0 0 1-.15-.059.312.312 0 0 1-.05-.189V1.321h-.74v3.095a.769.769 0 0 0 .13.5.46.46 0 0 0 .39.167.923.923 0 0 0 .43-.118 1.6 1.6 0 0 0 .42-.346v.41h.74z"/></svg><svg viewBox="-4 -4 35.01 35.01" width="35.01" height="35.01" id="zoom" y="158" xmlns="http://www.w3.org/2000/svg"><defs><style>.bccls-1{fill:#fff;fill-rule:evenodd}</style></defs><g id="bcСлой_2" data-name="Слой 2"><g id="bcСлой_1-2" data-name="Слой 1"><path class="bccls-1" d="M15.14 18.45l3.31-3.31L27 23.7 23.7 27z"/><path class="bccls-1" d="M10.54 0A10.54 10.54 0 1 1 0 10.54 10.53 10.53 0 0 1 10.54 0zm0 3.73a6.81 6.81 0 1 1-6.81 6.81 6.8 6.8 0 0 1 6.81-6.81z"/></g></g></svg></svg>