<?xml version="1.0" encoding="utf-8"?><svg width="313" height="177" viewBox="0 0 313 177" xmlns="http://www.w3.org/2000/svg" xmlns:xlink="http://www.w3.org/1999/xlink"><svg width="72" height="72" viewBox="-4 -4 72 72" id="business-trip-price" xmlns="http://www.w3.org/2000/svg"><path fill-rule="evenodd" fill="#FFF" d="M63.779 62.537c-.04.099-.122.197-.18.276-.375.476-.95.752-1.565.752H2.593a1.984 1.984 0 0 1-1.563-.752 1.954 1.954 0 0 1-.358-1.702l9.907-39.585a1.973 1.973 0 0 1 1.922-1.504h5.383c.11.276.199.532.321.82.18.39.372.773.557 1.159h-6.261L9.668 33.283v.002l11.92 5.101 4.173-4.761c.32.447.635.897.916 1.278.096.139.182.253.274.387l-6.782 7.75 24.666-5.481 2.003-3.644-5.685-3.641c.017-.027.033-.052.052-.077.35-.547.702-1.094.998-1.603l5.585 3.58 1.666 1.071 6.539 4.194-3.867-15.438h-6.25c.186-.396.376-.788.563-1.2.118-.273.201-.518.306-.779h5.381c.912 0 1.705.614 1.924 1.504l4.379 17.476.693 2.811 4.833 19.298c.12.494.06.989-.176 1.426zm-4.797-.951L40.934 48.858l-6.957 12.728h25.005zm-30.75 0L13.275 50.919 3.921 61.586h24.311zm-8.018-21.634L9.196 35.234l-.004.007L3.131 59.46l8.499-9.711 1.327-1.504 1.724-1.96 2.199-2.531 3.334-3.802zm-2.264 5.603l-3.369 3.858L31.64 61.586h.081l7.588-13.874.95-1.763 3.328-6.075-25.637 5.681zm38.735-5.306l-8.183-5.263-1.089 1.997-1.249 2.317-4.261 7.8 20.051 14.128-5.269-20.979zM43.687 22.001a66.822 66.822 0 0 1-3.15 5.522 48.12 48.12 0 0 1-1.05 1.682c-2.595 3.958-5.072 7.165-5.608 7.878-.376.476-.95.752-1.564.752-.615 0-1.19-.276-1.567-.752-.315-.415-1.248-1.623-2.455-3.326a76.403 76.403 0 0 1-1.189-1.662c-2.003-2.869-4.398-6.57-6.141-10.094a34.427 34.427 0 0 1-.953-1.979c-.95-2.217-1.565-4.275-1.565-5.938 0-7.64 6.223-13.855 13.87-13.855 7.646 0 13.869 6.215 13.869 13.855 0 1.663-.616 3.721-1.566 5.938-.298.653-.594 1.307-.931 1.979zM32.315 2.209c-6.559 0-11.888 5.323-11.888 11.875 0 1.583.694 3.682 1.764 5.938.275.632.613 1.307.97 1.979 1.565 2.969 3.566 6.058 5.29 8.549.414.596.811 1.17 1.188 1.684a109.378 109.378 0 0 0 2.676 3.622s2.675-3.425 5.488-7.739c.358-.536.712-1.089 1.068-1.663a77.313 77.313 0 0 0 2.597-4.453c.356-.672.693-1.347.97-1.979 1.072-2.256 1.764-4.355 1.764-5.938 0-6.552-5.331-11.875-11.887-11.875zm0 15.834c-3.278 0-5.944-2.664-5.944-5.938 0-3.274 2.666-5.938 5.944-5.938s5.945 2.664 5.945 5.938c0 3.274-2.667 5.938-5.945 5.938zm0-9.896a3.96 3.96 0 0 0-3.963 3.958 3.96 3.96 0 0 0 3.963 3.958 3.96 3.96 0 0 0 3.963-3.958 3.96 3.96 0 0 0-3.963-3.958z"/></svg><svg width="57" height="71" viewBox="-4 -4 57 71" id="contract" x="72" xmlns="http://www.w3.org/2000/svg"><path fill-rule="evenodd" fill="#FFF" d="M41.653 62.997H6.796c-3.737 0-6.777-3.048-6.777-6.794V7.668c0-3.746 3.04-6.795 6.777-6.795h34.857c3.737 0 6.778 3.049 6.778 6.795v48.535c0 3.746-3.041 6.794-6.778 6.794zM34.875 2.815H13.574V9.61c0 .535.434.97.968.97h19.365a.97.97 0 0 0 .968-.97V2.815zm-.968 9.707H14.542a2.911 2.911 0 0 1-2.904-2.912V6.698H9.217c-1.335 0-2.421 1.306-2.421 2.912v44.651a2.911 2.911 0 0 0 2.905 2.912h29.047a2.911 2.911 0 0 0 2.905-2.912V9.61c0-1.606-1.085-2.912-2.421-2.912h-2.42V9.61a2.911 2.911 0 0 1-2.905 2.912zm12.587-4.854c0-2.675-2.172-4.853-4.841-4.853h-4.841v1.941h2.42c2.403 0 4.358 2.178 4.358 4.854v44.651c0 2.676-2.172 4.854-4.842 4.854H9.701c-2.669 0-4.841-2.178-4.841-4.854V9.61c0-2.676 1.954-4.854 4.357-4.854h2.421V2.815H6.796c-2.669 0-4.841 2.178-4.841 4.853v48.535c0 2.676 2.172 4.853 4.841 4.853h34.857c2.669 0 4.841-2.177 4.841-4.853V7.668zM37.78 23.2a.97.97 0 0 1-.968.971l-17.428-.001a.97.97 0 0 1 0-1.941h17.428a.97.97 0 0 1 .968.971zm0 5.824a.97.97 0 0 1-.968.971l-25.173-.001a.97.97 0 1 1 0-1.942l25.173.002c.535 0 .968.434.968.97zm-26.142 16.5h17.428a.97.97 0 0 1 .968.971.97.97 0 0 1-.968.971H11.638a.97.97 0 0 1-.969-.971.97.97 0 0 1 .969-.971zm25.174-9.706l-25.172-.001a.97.97 0 0 1 0-1.941l25.172.001a.97.97 0 0 1 0 1.941zM10.671 40.67a.97.97 0 0 1 .969-.971l25.172.001a.97.97 0 1 1 0 1.942l-25.172-.001a.97.97 0 0 1-.969-.971z"/></svg><svg width="69" height="54" viewBox="-4 -4 69 54" id="free-consult" y="72" xmlns="http://www.w3.org/2000/svg"><path fill-rule="evenodd" fill="#FFF" d="M55.853 40.328h-2.896c-.458 3.183-3.197 5.639-6.507 5.639-3.309 0-6.048-2.456-6.507-5.639H20.987c-.458 3.183-3.198 5.639-6.507 5.639-3.309 0-6.049-2.456-6.507-5.639H5.077a4.705 4.705 0 0 1-4.701-4.699V23.412c0-1.266.611-2.953 1.421-3.925l6.995-8.39c.848-1.015 2.484-1.782 3.807-1.782h7.523V5.556A4.705 4.705 0 0 1 24.823.857h31.03a4.706 4.706 0 0 1 4.702 4.699v30.073a4.706 4.706 0 0 1-4.702 4.699zm-9.403 3.759a4.706 4.706 0 0 0 4.702-4.698 4.706 4.706 0 0 0-4.702-4.699 4.705 4.705 0 0 0-4.701 4.699 4.705 4.705 0 0 0 4.701 4.698zm-31.97 0a4.706 4.706 0 0 0 4.702-4.698 4.706 4.706 0 0 0-4.702-4.699 4.706 4.706 0 0 0-4.702 4.699c0 2.59 2.11 4.698 4.702 4.698zm5.642-32.892h-7.523c-.753 0-1.879.527-2.361 1.106L3.242 20.69a3.913 3.913 0 0 0-.504.842h14.563a2.822 2.822 0 0 0 2.821-2.819v-7.518zm38.552-5.639a2.822 2.822 0 0 0-2.821-2.819h-31.03a2.823 2.823 0 0 0-2.821 2.819v13.157a4.705 4.705 0 0 1-4.701 4.699H2.256v12.217a2.823 2.823 0 0 0 2.821 2.82h2.896c.458-3.183 3.198-5.639 6.507-5.639 3.309 0 6.049 2.456 6.507 5.639h18.956c.459-3.183 3.198-5.639 6.507-5.639 3.31 0 6.049 2.456 6.507 5.639h2.896a2.823 2.823 0 0 0 2.821-2.82V5.556zm-5.642 5.639H27.644a.94.94 0 0 1 0-1.88h25.388a.94.94 0 1 1 0 1.88zm-25.388 1.879h20.687a.94.94 0 1 1 0 1.88H27.644a.94.94 0 0 1 0-1.88zm0 3.76h15.985a.94.94 0 1 1 0 1.879H27.644a.94.94 0 0 1 0-1.879zM14.48 36.569a2.823 2.823 0 0 1 2.821 2.82 2.823 2.823 0 0 1-2.821 2.819 2.823 2.823 0 0 1-2.821-2.819 2.823 2.823 0 0 1 2.821-2.82zm0 3.759a.94.94 0 1 0 0-1.88.94.94 0 0 0 0 1.88zm31.97-3.759a2.823 2.823 0 0 1 2.821 2.82 2.823 2.823 0 0 1-2.821 2.819 2.824 2.824 0 0 1-2.821-2.819 2.824 2.824 0 0 1 2.821-2.82zm0 3.759a.94.94 0 0 0 .941-.939.942.942 0 0 0-1.881 0 .94.94 0 0 0 .94.939z"/></svg><svg width="61" height="69" viewBox="-4 -4 61 69" id="min-price" x="129" xmlns="http://www.w3.org/2000/svg"><path fill-rule="evenodd" fill="#FFF" d="M35.79 55.148h-.022a.94.94 0 0 1-.022-1.881c7.291-.173 15.097-2.857 15.097-6.578v-3.707c-2.339 2.238-6.696 3.913-12.155 4.46a.94.94 0 0 1-1.029-.843.941.941 0 0 1 .842-1.03c7.036-.704 12.342-3.459 12.342-6.407v-3.656c-2.313 2.215-6.614 3.847-12.116 4.404a.94.94 0 0 1-1.03-.841.942.942 0 0 1 .841-1.032c7.014-.711 12.305-3.464 12.305-6.403v-3.683c-2.763 2.638-8.327 4.454-15.052 4.613l-.022.001a.941.941 0 0 1-.022-1.882c7.29-.173 15.096-2.857 15.096-6.577v-3.705c-2.902 2.775-8.892 4.646-15.986 4.646-7.094 0-13.084-1.871-15.985-4.646v1.823a.941.941 0 0 1-1.88 0V9.05c0-4.749 7.847-8.469 17.865-8.469 10.019 0 17.866 3.72 17.866 8.469v37.639c0 4.595-7.279 8.231-16.933 8.459zm-.933-52.685c-9.561 0-15.985 3.406-15.985 6.587 0 3.181 6.424 6.587 15.985 6.587 9.562 0 15.986-3.406 15.986-6.587 0-3.181-6.424-6.587-15.986-6.587zm15.986 10.411c-2.902 2.775-8.892 4.645-15.986 4.645-7.094 0-13.084-1.87-15.985-4.645v3.704c0 3.181 6.424 6.587 15.985 6.587 9.562 0 15.986-3.406 15.986-6.587v-3.704zM35.798 42.925c0 9.859-8.015 17.879-17.866 17.879-9.851 0-17.866-8.02-17.866-17.879 0-9.858 8.015-17.878 17.866-17.878 9.851 0 17.866 8.02 17.866 17.878zm-33.851 0c0 8.821 7.171 15.997 15.985 15.997s15.985-7.176 15.985-15.997c0-8.82-7.171-15.996-15.985-15.996S1.947 34.105 1.947 42.925zm30.09 0c0 7.784-6.328 14.115-14.105 14.115S3.828 50.709 3.828 42.925c0-7.782 6.327-14.115 14.104-14.115 7.777 0 14.105 6.333 14.105 14.115zm-26.329 0c0 6.746 5.483 12.234 12.224 12.234 6.741 0 12.224-5.488 12.224-12.234 0-6.745-5.483-12.232-12.224-12.232-6.741 0-12.224 5.487-12.224 12.232z"/></svg><svg width="54" height="69" viewBox="-4 -4 54 69" id="no-prepayment" x="190" xmlns="http://www.w3.org/2000/svg"><path fill-rule="evenodd" fill="#FFF" d="M40.669 60.141H4.937a4.706 4.706 0 0 1-4.701-4.699V4.693A4.705 4.705 0 0 1 4.937-.006h35.732a4.705 4.705 0 0 1 4.701 4.699v50.749a4.706 4.706 0 0 1-4.701 4.699zM43.49 4.693a2.823 2.823 0 0 0-2.821-2.819H4.937a2.822 2.822 0 0 0-2.82 2.819v50.749a2.823 2.823 0 0 0 2.82 2.819h35.732a2.824 2.824 0 0 0 2.821-2.819V4.693zm-4.702 47.929H25.624a2.823 2.823 0 0 1-2.821-2.819V39.465a2.824 2.824 0 0 1 2.821-2.819h13.164a2.823 2.823 0 0 1 2.821 2.819v10.338a2.822 2.822 0 0 1-2.821 2.819zm.941-13.157a.94.94 0 0 0-.941-.939H25.624a.94.94 0 0 0-.94.939v10.338c0 .518.422.94.94.94h13.164a.942.942 0 0 0 .941-.94V39.465zm-3.762 7.519h-7.522a.94.94 0 0 1 0-1.88h7.522a.94.94 0 1 1 0 1.88zm0-2.82h-7.522a.94.94 0 1 1 0-1.879h7.522a.94.94 0 1 1 0 1.879zm.941-15.976a.94.94 0 1 1 0 1.879h-9.403a.94.94 0 1 1 0-1.879h9.403zm2.821-8.458H5.878a.94.94 0 0 1-.941-.94V5.633a.94.94 0 0 1 .941-.94h33.851a.94.94 0 0 1 .94.94V18.79a.94.94 0 0 1-.94.94zm-.941-13.157H6.818V17.85h31.97V6.573zm-30.089.939l2.821.001a.94.94 0 0 1 0 1.88h-.001l-1.88-.001v1.879a.94.94 0 1 1-1.881 0V8.452a.939.939 0 0 1 .941-.94zm25.388 7.519h1.881v-1.88a.94.94 0 0 1 1.88 0v2.82a.94.94 0 0 1-.94.939h-2.821a.94.94 0 1 1 0-1.879zM7.758 28.188h3.762v-3.759a.94.94 0 1 1 1.88 0v3.759h3.761a.94.94 0 1 1 0 1.879H13.4v3.759a.94.94 0 1 1-1.88 0v-3.759H7.758a.94.94 0 1 1 0-1.879zm-.232 12.533a.94.94 0 0 1 1.328-.078l3.606 3.204 3.606-3.204a.94.94 0 1 1 1.25 1.404l-3.441 3.057 3.441 3.057a.939.939 0 0 1-.625 1.642.937.937 0 0 1-.625-.238l-3.606-3.204-3.606 3.204a.937.937 0 0 1-1.328-.078.939.939 0 0 1 .078-1.326l3.441-3.057-3.441-3.057a.939.939 0 0 1-.078-1.326z"/></svg><svg width="69" height="51" viewBox="-4 -4 69 51" id="payment-types" y="126" xmlns="http://www.w3.org/2000/svg"><path fill-rule="evenodd" fill="#FFF" d="M55.969 23.494h-9.403a.94.94 0 0 1 0-1.882h9.403a2.824 2.824 0 0 0 2.821-2.822V5.616a2.825 2.825 0 0 0-2.821-2.824H5.193a2.825 2.825 0 0 0-2.821 2.824V18.79a2.824 2.824 0 0 0 2.821 2.822h7.522a.941.941 0 0 1 0 1.882H5.193A4.709 4.709 0 0 1 .491 18.79V5.616A4.71 4.71 0 0 1 5.193.911h50.776a4.71 4.71 0 0 1 4.702 4.705V18.79a4.709 4.709 0 0 1-4.702 4.704zM18.037 13.143H8.014a.94.94 0 1 1 0-1.882h11.278l.005-.001 11.284.001h22.567a.94.94 0 0 1 0 1.882h-6.455l-8.63 28.504a.941.941 0 0 1-.9.668H14.596a.942.942 0 0 1-.902-1.209l.757-2.556h-2.676a.941.941 0 0 1-.902-1.209l7.164-24.198zm18.429 27.29l8.263-27.29h-2.162l-7.323 24.733a.94.94 0 0 1-.902.674H16.413l-.558 1.883h20.611zm-2.826-3.765l6.965-23.524-10.303-.001H19.999l-6.965 23.525H33.64zM22.373 15.063a.94.94 0 0 1 .634 1.169l-4.036 13.632a4.662 4.662 0 0 1 2.113 3.04h5.83a4.71 4.71 0 0 1 4.607-3.763c.143 0 .288.008.437.024l4.309-13.485a.941.941 0 0 1 1.792.574l-4.567 14.29a.94.94 0 0 1-1.166.614 2.788 2.788 0 0 0-.805-.135 2.826 2.826 0 0 0-2.821 2.822.94.94 0 0 1-.94.941h-7.522a.94.94 0 0 1-.941-.941 2.804 2.804 0 0 0-1.794-2.621.94.94 0 0 1-.557-1.143l4.258-14.383a.942.942 0 0 1 1.169-.635z"/></svg><svg width="69" height="69" viewBox="-4 -4 69 69" id="sales" x="244" xmlns="http://www.w3.org/2000/svg"><path fill-rule="evenodd" fill="#FFF" d="M56.07 23.168H5.294a4.705 4.705 0 0 1-4.701-4.699v-1.88a4.706 4.706 0 0 1 4.701-4.699h15.149a6.552 6.552 0 0 1-1.984-4.698c0-3.628 2.953-6.579 6.581-6.579a6.578 6.578 0 0 1 5.642 3.208A6.58 6.58 0 0 1 36.324.613c3.629 0 6.582 2.951 6.582 6.579 0 1.84-.762 3.504-1.984 4.698H56.07a4.706 4.706 0 0 1 4.702 4.699v1.88a4.706 4.706 0 0 1-4.702 4.699zM29.742 7.192a4.706 4.706 0 0 0-4.702-4.699 4.705 4.705 0 0 0-4.701 4.699 4.705 4.705 0 0 0 4.701 4.698h4.702V7.192zm11.284 0a4.706 4.706 0 0 0-4.702-4.699 4.705 4.705 0 0 0-4.701 4.699v4.698h4.701a4.706 4.706 0 0 0 4.702-4.698zm17.865 9.397a2.823 2.823 0 0 0-2.821-2.819H5.294a2.824 2.824 0 0 0-2.821 2.819v1.88a2.823 2.823 0 0 0 2.821 2.819H56.07a2.822 2.822 0 0 0 2.821-2.819v-1.88zm-3.761 3.759l-.939.001h-.001a.94.94 0 1 1-.001-1.879l.94-.001c.52 0 .941-.422.941-.94v-.939a.94.94 0 0 1 1.881 0v.939a2.822 2.822 0 0 1-2.821 2.819zM7.175 16.59h-.001l-.94-.001a.941.941 0 0 0-.94.94v.941a.94.94 0 0 1-1.88 0v-.941a2.822 2.822 0 0 1 2.82-2.819h.942a.94.94 0 0 1-.001 1.88zm1.88 20.674v-9.397a.94.94 0 0 1 1.881 0v9.397a.94.94 0 0 1-1.881 0zM6.234 25.048c.52 0 .941.42.941.939v14.097h22.567V25.987a.94.94 0 0 1 1.881 0v14.097H54.19V25.987c0-.519.42-.939.94-.939s.94.42.94.939v30.074a4.705 4.705 0 0 1-4.701 4.698H9.996a4.706 4.706 0 0 1-4.702-4.698V25.987a.94.94 0 0 1 .94-.939zM31.623 58.88h19.746a2.824 2.824 0 0 0 2.821-2.819V41.964H31.623V58.88zM7.175 56.061a2.823 2.823 0 0 0 2.821 2.819h19.746V41.964H7.175v14.097zm5.642.939h-.941a2.823 2.823 0 0 1-2.821-2.819v-9.398a.94.94 0 0 1 1.881 0v9.398c0 .518.421.94.94.94h.941a.94.94 0 0 1 0 1.879z"/></svg><svg width="54" height="61" viewBox="-4 -4 54 61" id="warranty" x="244" y="69" xmlns="http://www.w3.org/2000/svg"><path fill-rule="evenodd" fill="#FFF" d="M23.275 52.587a.964.964 0 0 1-.4 0C22.652 52.538.508 47.438.508 22.535V7.498a.94.94 0 0 1 .867-.937c.121-.009 12.121-.993 21.216-6.447a.944.944 0 0 1 .968 0c9.095 5.454 21.095 6.438 21.215 6.447a.94.94 0 0 1 .868.937v15.037c0 24.903-22.144 30.003-22.367 30.052zM43.761 8.352c-2.936-.321-12.634-1.688-20.686-6.342-8.052 4.654-17.75 6.021-20.687 6.342v14.183c0 9.829 3.517 17.564 10.453 22.99 4.61 3.605 9.239 4.924 10.238 5.177 2.286-.561 20.682-5.78 20.682-28.167V8.352zm-7.522 21.701H15.552a.939.939 0 0 1-.898-.663l-3.557-11.554H7.09a.939.939 0 1 1 0-1.88h4.701c.414 0 .778.269.899.664l.664 2.156h17.243a.939.939 0 1 1 0 1.879H13.933l.867 2.82h18.618a.939.939 0 1 1 0 1.88H15.379l.868 2.819h19.992a.939.939 0 1 1 0 1.879zm-15.985.94a2.823 2.823 0 0 1 2.821 2.819 2.823 2.823 0 0 1-2.821 2.82 2.823 2.823 0 0 1-2.821-2.82 2.823 2.823 0 0 1 2.821-2.819zm0 3.759a.94.94 0 1 0 0-1.88.94.94 0 0 0 0 1.88zm11.283-3.759a2.823 2.823 0 0 1 2.821 2.819 2.823 2.823 0 0 1-2.821 2.82 2.823 2.823 0 0 1-2.82-2.82 2.823 2.823 0 0 1 2.82-2.819zm0 3.759a.941.941 0 0 0 .941-.94.94.94 0 0 0-1.881 0c0 .519.422.94.94.94z"/></svg></svg>